<?xml version="1.0" encoding="UTF-8"?>
<svg width="700pt" height="700pt" version="1.1" viewBox="0 0 700 700" xmlns="http://www.w3.org/2000/svg" xmlns:xlink="http://www.w3.org/1999/xlink">
 <defs>
  <symbol id="u" overflow="visible">
   <path d="m18.766-1.125c-0.96875 0.5-1.9805 0.875-3.0312 1.125-1.043 0.25781-2.1367 0.39062-3.2812 0.39062-3.3984 0-6.0898-0.94531-8.0781-2.8438-1.9922-1.9062-2.9844-4.4844-2.9844-7.7344 0-3.2578 0.99219-5.8359 2.9844-7.7344 1.9883-1.9062 4.6797-2.8594 8.0781-2.8594 1.1445 0 2.2383 0.13281 3.2812 0.39062 1.0508 0.25 2.0625 0.625 3.0312 1.125v4.2188c-0.98047-0.65625-1.9453-1.1406-2.8906-1.4531-0.94922-0.3125-1.9492-0.46875-3-0.46875-1.875 0-3.3516 0.60547-4.4219 1.8125-1.0742 1.1992-1.6094 2.8555-1.6094 4.9688 0 2.1055 0.53516 3.7617 1.6094 4.9688 1.0703 1.1992 2.5469 1.7969 4.4219 1.7969 1.0508 0 2.0508-0.14844 3-0.45312 0.94531-0.3125 1.9102-0.80078 2.8906-1.4688z"/>
  </symbol>
  <symbol id="c" overflow="visible">
   <path d="m13.734-11.141c-0.4375-0.19531-0.87109-0.34375-1.2969-0.4375-0.41797-0.10156-0.83984-0.15625-1.2656-0.15625-1.2617 0-2.2305 0.40625-2.9062 1.2188-0.67969 0.80469-1.0156 1.9531-1.0156 3.4531v7.0625h-4.8906v-15.312h4.8906v2.5156c0.625-1 1.3438-1.7266 2.1562-2.1875 0.82031-0.46875 1.8008-0.70312 2.9375-0.70312 0.16406 0 0.34375 0.011719 0.53125 0.03125 0.19531 0.011719 0.47656 0.039062 0.84375 0.078125z"/>
  </symbol>
  <symbol id="b" overflow="visible">
   <path d="m17.641-7.7031v1.4062h-11.453c0.125 1.1484 0.53906 2.0078 1.25 2.5781 0.70703 0.57422 1.7031 0.85938 2.9844 0.85938 1.0312 0 2.082-0.14844 3.1562-0.45312 1.082-0.3125 2.1914-0.77344 3.3281-1.3906v3.7656c-1.1562 0.4375-2.3125 0.76562-3.4688 0.98438-1.1562 0.22656-2.3125 0.34375-3.4688 0.34375-2.7734 0-4.9297-0.70312-6.4688-2.1094-1.5312-1.4062-2.2969-3.3789-2.2969-5.9219 0-2.5 0.75391-4.4609 2.2656-5.8906 1.5078-1.4375 3.582-2.1562 6.2188-2.1562 2.4062 0 4.332 0.73047 5.7812 2.1875 1.4453 1.4492 2.1719 3.3828 2.1719 5.7969zm-5.0312-1.625c0-0.92578-0.27344-1.6719-0.8125-2.2344-0.54297-0.57031-1.25-0.85938-2.125-0.85938-0.94922 0-1.7188 0.26562-2.3125 0.79688s-0.96484 1.2969-1.1094 2.2969z"/>
  </symbol>
  <symbol id="f" overflow="visible">
   <path d="m9.2188-6.8906c-1.0234 0-1.793 0.17188-2.3125 0.51562-0.51172 0.34375-0.76562 0.85547-0.76562 1.5312 0 0.625 0.20703 1.1172 0.625 1.4688 0.41406 0.34375 0.98828 0.51562 1.7188 0.51562 0.92578 0 1.7031-0.32812 2.3281-0.98438 0.63281-0.66406 0.95312-1.4922 0.95312-2.4844v-0.5625zm7.4688-1.8438v8.7344h-4.9219v-2.2656c-0.65625 0.92969-1.3984 1.6055-2.2188 2.0312-0.82422 0.41406-1.8242 0.625-3 0.625-1.5859 0-2.8711-0.45703-3.8594-1.375-0.99219-0.92578-1.4844-2.1289-1.4844-3.6094 0-1.7891 0.61328-3.1016 1.8438-3.9375 1.2383-0.84375 3.1797-1.2656 5.8281-1.2656h2.8906v-0.39062c0-0.76953-0.30859-1.332-0.92188-1.6875-0.61719-0.36328-1.5703-0.54688-2.8594-0.54688-1.0547 0-2.0312 0.10547-2.9375 0.3125-0.89844 0.21094-1.7305 0.52344-2.5 0.9375v-3.7344c1.0391-0.25 2.0859-0.44141 3.1406-0.57812 1.0625-0.13281 2.125-0.20312 3.1875-0.20312 2.7578 0 4.75 0.54688 5.9688 1.6406 1.2266 1.0859 1.8438 2.8555 1.8438 5.3125z"/>
  </symbol>
  <symbol id="a" overflow="visible">
   <path d="m7.7031-19.656v4.3438h5.0469v3.5h-5.0469v6.5c0 0.71094 0.14062 1.1875 0.42188 1.4375s0.83594 0.375 1.6719 0.375h2.5156v3.5h-4.1875c-1.9375 0-3.3125-0.39844-4.125-1.2031-0.80469-0.8125-1.2031-2.1797-1.2031-4.1094v-6.5h-2.4219v-3.5h2.4219v-4.3438z"/>
  </symbol>
  <symbol id="k" overflow="visible">
   <path d="m12.766-13.078v-8.2031h4.9219v21.281h-4.9219v-2.2188c-0.66797 0.90625-1.4062 1.5703-2.2188 1.9844s-1.7578 0.625-2.8281 0.625c-1.8867 0-3.4336-0.75-4.6406-2.25-1.2109-1.5-1.8125-3.4258-1.8125-5.7812 0-2.3633 0.60156-4.2969 1.8125-5.7969 1.207-1.5 2.7539-2.25 4.6406-2.25 1.0625 0 2 0.21484 2.8125 0.64062 0.82031 0.42969 1.5664 1.0859 2.2344 1.9688zm-3.2188 9.9219c1.0391 0 1.8359-0.37891 2.3906-1.1406 0.55078-0.76953 0.82812-1.8828 0.82812-3.3438 0-1.457-0.27734-2.5664-0.82812-3.3281-0.55469-0.76953-1.3516-1.1562-2.3906-1.1562-1.043 0-1.8398 0.38672-2.3906 1.1562-0.55469 0.76172-0.82812 1.8711-0.82812 3.3281 0 1.4609 0.27344 2.5742 0.82812 3.3438 0.55078 0.76172 1.3477 1.1406 2.3906 1.1406z"/>
  </symbol>
  <symbol id="j" overflow="visible">
   <path d="m10.5-3.1562c1.0508 0 1.8516-0.37891 2.4062-1.1406 0.55078-0.76953 0.82812-1.8828 0.82812-3.3438 0-1.457-0.27734-2.5664-0.82812-3.3281-0.55469-0.76953-1.3555-1.1562-2.4062-1.1562-1.0547 0-1.8594 0.38672-2.4219 1.1562-0.55469 0.77344-0.82812 1.8828-0.82812 3.3281 0 1.4492 0.27344 2.5586 0.82812 3.3281 0.5625 0.77344 1.3672 1.1562 2.4219 1.1562zm-3.25-9.9219c0.67578-0.88281 1.4219-1.5391 2.2344-1.9688 0.82031-0.42578 1.7656-0.64062 2.8281-0.64062 1.8945 0 3.4453 0.75 4.6562 2.25 1.207 1.5 1.8125 3.4336 1.8125 5.7969 0 2.3555-0.60547 4.2812-1.8125 5.7812-1.2109 1.5-2.7617 2.25-4.6562 2.25-1.0625 0-2.0078-0.21094-2.8281-0.625-0.8125-0.42578-1.5586-1.0859-2.2344-1.9844v2.2188h-4.8906v-21.281h4.8906z"/>
  </symbol>
  <symbol id="i" overflow="visible">
   <path d="m0.34375-15.312h4.8906l4.125 10.391 3.5-10.391h4.8906l-6.4375 16.766c-0.64844 1.6953-1.4023 2.8828-2.2656 3.5625-0.86719 0.6875-2 1.0312-3.4062 1.0312h-2.8438v-3.2188h1.5312c0.83203 0 1.4375-0.13672 1.8125-0.40625 0.38281-0.26172 0.67969-0.73047 0.89062-1.4062l0.14062-0.42188z"/>
  </symbol>
  <symbol id="e" overflow="visible">
   <path d="m14.953-3.7188h-8.2188l-1.3125 3.7188h-5.2812l7.5625-20.406h6.2656l7.5625 20.406h-5.2812zm-6.9062-3.7812h5.5781l-2.7812-8.125z"/>
  </symbol>
  <symbol id="t" overflow="visible">
   <path d="m2.3594-15.312h4.8906v15.312h-4.8906zm0-5.9688h4.8906v4h-4.8906z"/>
  </symbol>
  <symbol id="d" overflow="visible">
   <path d="m9.6406-12.188c-1.0859 0-1.9141 0.39062-2.4844 1.1719-0.57422 0.78125-0.85938 1.9062-0.85938 3.375s0.28516 2.5938 0.85938 3.375c0.57031 0.77344 1.3984 1.1562 2.4844 1.1562 1.0625 0 1.875-0.38281 2.4375-1.1562 0.57031-0.78125 0.85938-1.9062 0.85938-3.375s-0.28906-2.5938-0.85938-3.375c-0.5625-0.78125-1.375-1.1719-2.4375-1.1719zm0-3.5c2.6328 0 4.6914 0.71484 6.1719 2.1406 1.4766 1.418 2.2188 3.3867 2.2188 5.9062 0 2.5117-0.74219 4.4805-2.2188 5.9062-1.4805 1.418-3.5391 2.125-6.1719 2.125-2.6484 0-4.7148-0.70703-6.2031-2.125-1.4922-1.4258-2.2344-3.3945-2.2344-5.9062 0-2.5195 0.74219-4.4883 2.2344-5.9062 1.4883-1.4258 3.5547-2.1406 6.2031-2.1406z"/>
  </symbol>
  <symbol id="h" overflow="visible">
   <path d="m17.75-9.3281v9.3281h-4.9219v-7.1406c0-1.3203-0.03125-2.2344-0.09375-2.7344s-0.16797-0.86719-0.3125-1.1094c-0.1875-0.3125-0.44922-0.55469-0.78125-0.73438-0.32422-0.17578-0.69531-0.26562-1.1094-0.26562-1.0234 0-1.8242 0.39844-2.4062 1.1875-0.58594 0.78125-0.875 1.8711-0.875 3.2656v7.5312h-4.8906v-15.312h4.8906v2.2344c0.73828-0.88281 1.5195-1.5391 2.3438-1.9688 0.83203-0.42578 1.75-0.64062 2.75-0.64062 1.7695 0 3.1133 0.54688 4.0312 1.6406 0.91406 1.0859 1.375 2.6562 1.375 4.7188z"/>
  </symbol>
  <symbol id="g" overflow="visible">
   <path d="m2.1875-5.9688v-9.3438h4.9219v1.5312c0 0.83594-0.007813 1.875-0.015625 3.125-0.011719 1.25-0.015625 2.0859-0.015625 2.5 0 1.2422 0.03125 2.1328 0.09375 2.6719 0.070313 0.54297 0.17969 0.93359 0.32812 1.1719 0.20703 0.32422 0.47266 0.57422 0.79688 0.75 0.32031 0.16797 0.69141 0.25 1.1094 0.25 1.0195 0 1.8203-0.39062 2.4062-1.1719 0.58203-0.78125 0.875-1.8672 0.875-3.2656v-7.5625h4.8906v15.312h-4.8906v-2.2188c-0.74219 0.89844-1.5234 1.5586-2.3438 1.9844-0.82422 0.41406-1.7344 0.625-2.7344 0.625-1.7617 0-3.1055-0.53906-4.0312-1.625-0.92969-1.082-1.3906-2.6602-1.3906-4.7344z"/>
  </symbol>
  <symbol id="s" overflow="visible">
   <path d="m14.312-14.828v3.7188c-1.043-0.4375-2.0547-0.76562-3.0312-0.98438-0.98047-0.21875-1.9023-0.32812-2.7656-0.32812-0.92969 0-1.6211 0.11719-2.0781 0.34375-0.44922 0.23047-0.67188 0.58984-0.67188 1.0781 0 0.38672 0.17188 0.68359 0.51562 0.89062 0.34375 0.21094 0.95703 0.36719 1.8438 0.46875l0.85938 0.125c2.5078 0.32422 4.1953 0.85156 5.0625 1.5781 0.86328 0.73047 1.2969 1.8711 1.2969 3.4219 0 1.6367-0.60547 2.8672-1.8125 3.6875-1.1992 0.8125-2.9922 1.2188-5.375 1.2188-1.0234 0-2.0742-0.078125-3.1562-0.23438-1.0742-0.15625-2.1797-0.39453-3.3125-0.71875v-3.7188c0.96875 0.48047 1.9609 0.83984 2.9844 1.0781 1.0312 0.23047 2.0781 0.34375 3.1406 0.34375 0.95703 0 1.6758-0.12891 2.1562-0.39062 0.47656-0.26953 0.71875-0.66406 0.71875-1.1875 0-0.4375-0.16797-0.75781-0.5-0.96875-0.33594-0.21875-0.99609-0.38281-1.9844-0.5l-0.85938-0.10938c-2.1797-0.26953-3.7031-0.77344-4.5781-1.5156-0.875-0.73828-1.3125-1.8594-1.3125-3.3594 0-1.625 0.55078-2.8281 1.6562-3.6094 1.1133-0.78906 2.8203-1.1875 5.125-1.1875 0.89453 0 1.8359 0.074219 2.8281 0.21875 1 0.13672 2.082 0.35156 3.25 0.64062z"/>
  </symbol>
  <symbol id="r" overflow="visible">
   <path d="m12.422-21.281v3.2188h-2.7031c-0.6875 0-1.1719 0.125-1.4531 0.375-0.27344 0.25-0.40625 0.6875-0.40625 1.3125v1.0625h4.1875v3.5h-4.1875v11.812h-4.8906v-11.812h-2.4375v-3.5h2.4375v-1.0625c0-1.6641 0.46094-2.8984 1.3906-3.7031 0.92578-0.80078 2.3672-1.2031 4.3281-1.2031z"/>
  </symbol>
  <symbol id="q" overflow="visible">
   <path d="m16.547-12.766c0.61328-0.94531 1.3477-1.6719 2.2031-2.1719 0.85156-0.5 1.7891-0.75 2.8125-0.75 1.7578 0 3.0977 0.54688 4.0156 1.6406 0.92578 1.0859 1.3906 2.6562 1.3906 4.7188v9.3281h-4.9219v-7.9844-0.35938c0.007813-0.13281 0.015625-0.32031 0.015625-0.5625 0-1.082-0.16406-1.8633-0.48438-2.3438-0.3125-0.48828-0.82422-0.73438-1.5312-0.73438-0.92969 0-1.6484 0.38672-2.1562 1.1562-0.51172 0.76172-0.77344 1.8672-0.78125 3.3125v7.5156h-4.9219v-7.9844c0-1.6953-0.14844-2.7852-0.4375-3.2656-0.29297-0.48828-0.8125-0.73438-1.5625-0.73438-0.9375 0-1.6641 0.38672-2.1719 1.1562-0.51172 0.76172-0.76562 1.8594-0.76562 3.2969v7.5312h-4.9219v-15.312h4.9219v2.2344c0.60156-0.86328 1.2891-1.5156 2.0625-1.9531 0.78125-0.4375 1.6406-0.65625 2.5781-0.65625 1.0625 0 2 0.25781 2.8125 0.76562 0.8125 0.51172 1.4258 1.2305 1.8438 2.1562z"/>
  </symbol>
  <symbol id="p" overflow="visible">
   <path d="m17.75-9.3281v9.3281h-4.9219v-7.1094c0-1.3438-0.03125-2.2656-0.09375-2.7656s-0.16797-0.86719-0.3125-1.1094c-0.1875-0.3125-0.44922-0.55469-0.78125-0.73438-0.32422-0.17578-0.69531-0.26562-1.1094-0.26562-1.0234 0-1.8242 0.39844-2.4062 1.1875-0.58594 0.78125-0.875 1.8711-0.875 3.2656v7.5312h-4.8906v-21.281h4.8906v8.2031c0.73828-0.88281 1.5195-1.5391 2.3438-1.9688 0.83203-0.42578 1.75-0.64062 2.75-0.64062 1.7695 0 3.1133 0.54688 4.0312 1.6406 0.91406 1.0859 1.375 2.6562 1.375 4.7188z"/>
  </symbol>
  <symbol id="o" overflow="visible">
   <path d="m2.5781-20.406h5.875l7.4219 14v-14h4.9844v20.406h-5.875l-7.4219-14v14h-4.9844z"/>
  </symbol>
  <symbol id="n" overflow="visible">
   <path d="m2.5781-20.406h8.7344c2.5938 0 4.582 0.57812 5.9688 1.7344 1.3945 1.1484 2.0938 2.7891 2.0938 4.9219 0 2.1367-0.69922 3.7812-2.0938 4.9375-1.3867 1.1562-3.375 1.7344-5.9688 1.7344h-3.4844v7.0781h-5.25zm5.25 3.8125v5.7031h2.9219c1.0195 0 1.8047-0.25 2.3594-0.75 0.5625-0.5 0.84375-1.2031 0.84375-2.1094 0-0.91406-0.28125-1.6172-0.84375-2.1094-0.55469-0.48828-1.3398-0.73438-2.3594-0.73438z"/>
  </symbol>
  <symbol id="m" overflow="visible">
   <path d="m2.3594-15.312h4.8906v15.031c0 2.0508-0.49609 3.6172-1.4844 4.7031-0.98047 1.082-2.4062 1.625-4.2812 1.625h-2.4219v-3.2188h0.85938c0.92578 0 1.5625-0.21094 1.9062-0.625 0.35156-0.41797 0.53125-1.2461 0.53125-2.4844zm0-5.9688h4.8906v4h-4.8906z"/>
  </symbol>
  <symbol id="l" overflow="visible">
   <path d="m14.719-14.828v3.9844c-0.65625-0.45703-1.3242-0.79688-2-1.0156-0.66797-0.21875-1.3594-0.32812-2.0781-0.32812-1.3672 0-2.4336 0.40234-3.2031 1.2031-0.76172 0.79297-1.1406 1.9062-1.1406 3.3438 0 1.4297 0.37891 2.543 1.1406 3.3438 0.76953 0.79297 1.8359 1.1875 3.2031 1.1875 0.75781 0 1.4844-0.10938 2.1719-0.32812 0.6875-0.22656 1.3203-0.56641 1.9062-1.0156v4c-0.76172 0.28125-1.5391 0.48828-2.3281 0.625-0.78125 0.14453-1.5742 0.21875-2.375 0.21875-2.7617 0-4.9219-0.70703-6.4844-2.125-1.5547-1.4141-2.3281-3.3828-2.3281-5.9062 0-2.5312 0.77344-4.5039 2.3281-5.9219 1.5625-1.4141 3.7227-2.125 6.4844-2.125 0.80078 0 1.5938 0.074219 2.375 0.21875 0.78125 0.13672 1.5547 0.35156 2.3281 0.64062z"/>
  </symbol>
 </defs>
 <g>
  <path transform="matrix(5.6,0,0,5.6,70,0)" d="m97.091 55.209-0.12626-1.423 0.089983-1.7041c-0.27344-1.3442-0.009766-1.8827 0.22461-2.4665-0.28599-0.29436-0.48619-0.68429-0.4262-1.3679-0.4841-0.92843-0.86705-1.9413-1.5925-2.6688-0.34668-0.51409-0.56222-1.1035-1.1886-1.4579l-0.58315-1.5248-0.58664 0.017439-0.063477-0.79311c0.54199-0.71777 0.5413-1.4551-0.22182-2.2203l-0.17439 0.45968c-0.18694-0.21903-0.42899-0.34668-0.74568-0.34877l-0.41225-0.66616-0.17439 0.15834-0.094866 0.50712c-0.2832-0.15764-0.57896-0.29088-0.65081-0.87123l0.016043-1.6176-1.3958-2.41c0.054409-0.70173 0.054409-1.379-0.74498-1.6964l-1.5541-0.92076-0.3411-1.07-0.58664-0.016043c-0.36342-0.27972-0.76311-0.7959-1.0463-0.55525-0.768-0.57617-0.768-1.1516-1.0177-1.7278l0.084403-0.8245c-0.65778-0.28041-1.0986-0.65988-0.29715-1.6092l-0.21275-2.2259c-0.48061-0.52804-1.2472-0.70103-1.0149-2.1136-0.002093-0.35086 0.10324-0.71638-0.33622-1.0093-0.038365-0.7959-0.11649-1.6099 0.29157-2.198-0.090681 0.00837-1.8485-1.9971-1.7041-1.951-0.089983 0.066964-0.80706-0.066965-0.80706-0.066965-0.50921 0.64593-0.98912 0.92425-1.3456-0.38156l-0.16811-3.1508c-0.34738-0.016043-0.30483-0.47782-0.20159-1.0093-0.14718-0.29367-0.30273-0.58245-0.75126-0.69545 0.006976-0.3118 0.059292-0.60617 0.3697-0.7959-0.26856-0.24205-0.65988-0.42411-0.76381-0.74986l-0.094169-1.5248c-0.13393-0.6236-0.35924-1.0742-0.60268-1.4907-0.50084-0.15206-0.69057 0.39062-1.0149 0.63477-0.063476 1.0031-0.11579 2.0124-1.1098 2.5056l-0.31738 1.6176c0.34528 0.49595 0.27134 1.0463-0.44434 1.6811-0.15276 0.84124-0.19043 1.6629-0.15834 2.4735-0.41016 0.43038-0.43666 0.85379-0.031389 1.2688-0.43876 3.3343-0.83636 6.6978-4.1546 7.9925-0.79102-0.023019-1.1063-0.52176-1.5541-0.88798-0.41155-0.006975-0.61454-0.20159-0.41225-0.76102-0.37179-0.39481-0.70661-0.84333-1.3323-0.85658-0.50781-0.19671-0.35366-0.099749-0.87891-0.24274l-0.76102 24.546s4.864 0.29506 5.8984 0.38086l-0.38086 6.8499 16.745 1.7125 1.1419-0.38086c0.69476-0.041155 1.3972-0.17718 2.0933-0.19043l1.506 0.34877 1.5381 0.98284 0.95145-0.19043 0.95145-1.1419zm0 0" fill-rule="evenodd" stroke="#000" stroke-linecap="round" stroke-linejoin="round" stroke-width=".5"/>
  <path transform="matrix(5.6,0,0,5.6,70,0)" d="m59.302 15.253-0.15486 0.18764-0.024414 0.61175 0.21205 0.25321 1.0854 0.048828-0.23647-0.37528 0.008371-0.54688-0.1716-0.1716zm-15.266-6.8373c-0.27344 0.65988 0.50572 0.99609 1.0282 1.4118 0.34947 0.16741 0.52246 0.052315 0.77497 0.065569 0.24205-0.34319 0.53223-0.5406 0.81613-0.75893-0.044643-0.2274-0.078125-0.46596-0.33482-0.482-0.61663-0.034877-1.2388-0.113-1.8352 0.016741-0.17997-0.009766-0.3111-0.13951-0.44922-0.25321zm-0.47294 0.71777 0.66057 0.60407-0.12207 0.13044-0.74288-0.00837-0.081613-0.48131zm18.532 37.831 0.73382-24.512s-1.5193-0.7115-1.9741-1.3776c-0.59361-0.25181-1.3281-0.36342-1.4586-1.0784h-0.95145l-1.5855-2.0612c0.43457-0.47433 0.66406-1.2214 0.72963-2.1882l0.60268-0.92006c-0.37668 0.061384-1.0045-1.5095 0.85658-0.95145l0.41225-1.1098 1.1419-1.5541c-0.056501-0.25949-0.14021-0.49665-0.34877-0.63407-0.30622 0.22252-0.91588 0.085798-1.4537 0.034179l-1.0317 0.044643c1.4132-0.72196 2.0724-1.5604 2.2872-2.4665-0.65709 0.512-1.3553 1.024-2.041 1.536-0.53013 0.47154-1.1063 0.89704-1.8499 1.1551l-0.94168-0.75126-0.86356 0.32506c-0.67801-0.19043-1.3449-0.3976-1.8401-0.91936-1.6106 0.3704-1.7313-0.23019-1.9734-0.75195l-1.0317 0.03418-0.01116-0.57199c-0.29576-0.52107-0.59082-0.11928-0.88588-0.055804l-0.75126 0.066965c-0.15137 0.071149-0.20578 0.20647 0.10114 0.58315 3.4312 1.3072 0.36412 2.5642-0.20159 2.0633-0.40667 0.27204-0.83984 0.21903-1.3121-0.29157l-1.2612 0.15695c-0.18624 0.29785-0.3976 0.57059-0.73452 0.71777-0.40737 0.45619-0.42411 1.1823-1.2221 1.3679l-0.095563 0.43178c0.67871 0.92704 0.23368 1.084-0.44294 1.0819-0.29994 0.75684-0.38295 1.7808-1.1642 1.9427l-0.19043 0.83287c1.0728 1.5381-0.39551 1.5046-0.39551 1.5046 0.1981 9.4908 0.57059 28.161 0.57059 28.161zm0 0" fill-rule="evenodd" stroke="#000" stroke-linecap="round" stroke-linejoin="round" stroke-width=".5"/>
  <path transform="matrix(5.6,0,0,5.6,70,0)" d="m57.893 74.42c-0.38853 0.26646-0.14579 0.41364 0.13044 0.70173 0.4827-0.088588 0.94866 0.008371 1.4523 0.024414l0.42411 0.097656c0.10393-0.18485 0.12626-0.44573 0.5385-0.34249l0.016043-0.31808c-0.38295-0.32924-0.65011-0.21624-0.92913-0.14718l-0.42411-0.29367-0.71777-0.00837zm-16.376-25.709 21.502 0.19043 4.7573 0.19043-0.19043 6.0889-0.93262 26.083-1.084-0.40388-1.5702-2.0933-0.07952-0.69754c0.16462-0.98284-0.011161-2.0794-0.88797-3.4096l0.047433-0.95145c-0.6243 0.17369-1.356 0.24065-1.6964 0.69754l-0.3962-0.30134 1.0149-1.7446c-0.73661-0.40946-0.94168-1.1907-1.2688-1.8869-0.36272 0.68569-0.51618 1.5388-0.66616 2.3947-0.55594 0.048828-1.1733 0.064174-1.2688 0.36482l-0.69754-0.094866c-0.11021-0.23438-0.071149-0.44364 0.07952-0.63407 0.64174-0.36482 1.04-0.34808 1.3797-0.23786l0.23786-2.4261 0.74498-1.0944-0.03139-0.38086-0.016043-0.99888c0.15486-0.37667 0.013253-0.69406-0.03139-1.031-0.51618 0.94517-1.0505 1.8841-1.8234 2.7434-0.9082 0.07394-1.2974 0.7966-1.6964 1.5067-0.26158 0.2853-0.55036 0.49247-0.60268 1.3637-0.47224 0.088588-0.81194-0.13323-1.1579-0.3411l-0.02581-1.1963-0.66127-1.1217-0.61663-0.60547c0.072544-0.58036-0.32017-0.82659-0.78474-1.0205l-0.83008-0.87472c0.18136-0.46596-0.041155-2.0585-1.5695-1.6148l-0.57338-0.27972c-0.28878-0.369-0.67592-0.59431-1.3623-0.38295-1.2061-0.67174-2.4003-1.799-3.6475-0.99888h-2.2203l-0.994-0.3397-0.38086-14.461" fill-rule="evenodd" stroke="#000" stroke-linecap="round" stroke-linejoin="round" stroke-width=".5"/>
  <path transform="matrix(5.6,0,0,5.6,70,0)" d="m2.7218 50.286c0.12486 0.49316 0.18834 0.98702 0.51549 1.4802l0.80706 0.83008c0.93541 1.1649 2.0431 2.2524 2.3996 3.6782 1.0568 1.5499 2.516 2.9318 2.3326 5.0007 0.86496 1.4495 1.4704 3.1396 2.6911 4.2606-0.56641 1.333-0.4555 2.5663 0.022321 3.7451 0.26646 1.0121-0.54269 1.121-1.1886 1.3679 6.98e-4 0.76102-0.2839 1.5751 0.83008 2.1303 0.42341-0.13323 0.71359 0.035574 0.96401 0.29157l0.65011 0.4262c0.34459 0.006278 0.71498-0.025809 0.80706 0.35854l2.8258-0.13463c0.83496-0.32924 1.4328-1.0135 2.108-1.582 0.23089-0.56292 0.59849-0.63198 1.0463-0.41225 0.27204-0.007673 0.43736-0.14369 0.49177-0.41225 0.16253-1.8896 1.1342-1.1007 1.808-1.3002 1.0128-0.47782 2.1359-0.66197 3.4096-0.44434l2.5216 0.031389 0.5392-0.30134c0.48968-0.59361 0.91588-1.3574 1.2207-2.4421 0.77567-0.40248 1.6162-0.74149 2.2203-1.3163 1.0177-0.63477 2.2035-1.1544 4.3764-0.99888 1.0854-0.30134 1.7153-0.60268 2.1882-0.90402 0.41016-0.37388 1.686-0.46736 1.686-0.46736l-0.95006-44.524c-1.0128-0.52804-1.6309 0.021624-2.2015 0.48828 0 0-0.93541 0.82659-0.57059-0.34877l-1.8799-1.8631-1.5541-0.65011-0.3962 0.26995c-0.11091 0.49456-0.20159 1.0519-0.65011 0.55525-1.1398-0.2567-0.9661 0.79939-1.3958 1.2528l-0.60268-0.23786-1.2884 0.97866 0.38504 0.76521c-0.62709 0.29925-1.273 0.45061-1.8785 0.92983-0.10812 0.15904-0.15974 0.83217-0.069755 1.22 1.0386 0.94517 0.31459 0.8238 0.13463 1.0317 0.00279 0.75753-0.43876 0.40597-0.78474 0.29157l-1.3902-0.044642-0.69545-0.15695c-0.052315 0.072545-0.10533 0.14439-0.022321 0.24693 0.50293 0.29576 0.52595 0.54408 0.61105 0.79799 0.46596 0.41016 0.8252 0.83636 0.98772 1.2898-0.6264 0.34668-0.61035 0.43666-0.84682 0.62779-0.72614-0.62779-0.85379-1.3309-1.2674-1.9978-0.91936 0.78753-1.0114 1.6099-1.8164 2.2426 0.017439 0.72545-0.18206 1.4676 0.35854 2.1526l-1.0547 1.1433c-0.59361 2.5879-2.1966 3.939-4.5299 4.3952l-1.6148 0.022322c-0.68429 0.50363-1.1816 1.4753-2.2008 1.1419l-0.45968 0.44434c-0.27483 0.54688-0.74986 0.994-2.3626 0.87193-1.5492 1.0135-2.0954 2.048-3.8853 3.2987-0.62012 0.51479-1.0847 1.34-1.522 2.2203-0.10882 0.075335-0.20368 0.17439-0.49177-0.047433l-0.094866-1.0944c-0.46387 0.3125-0.72475 1.0533-0.66616 2.4721 0.32017 0.32924 0.22391 0.65778 0.089984 0.98702 0.16532 1.0407-0.085798 1.5723-0.47084 1.9399l0.011161 0.69545 0.83008 1.3344c0.67801 0.60407 1.2744 2.0306 1.861 3.5435-0.70592-0.399-1.1189-0.89425-1.6609-1.347l-0.13463 0.49316c0.58664 0.45829 0.85449 1.0491 1.0763 1.6595l-0.89634-0.88518c-0.58315-0.32715-0.89495-0.97098-1.3121-1.4914zm0 0" fill-rule="evenodd" stroke="#000" stroke-linecap="round" stroke-linejoin="round" stroke-width=".5"/>
  <path transform="matrix(5.6,0,0,5.6,70,0)" d="m75.65 88.017c2.5942 1.573 4.0527 1.3553 5.0544 0.41574 0.25321-0.032785 0.63198-0.24344 0.69266 0 1.0561 1.9622 0.077428 2.8878-0.32296 4.1078-0.24902 0.21903-0.56362 0.38574-0.069057 1.1998-0.39202-0.002791-0.62081 0.56641-0.83078 1.1998l-0.48479-0.80776c-0.84194 0.43666-0.64662 1.46-1.5004 1.6155-0.30064-0.12486-0.74637-0.16671-1.4767-0.046038-0.07952-0.29227-0.022322-0.58454-0.32296-0.87681-0.92215-1.0777-0.99051-1.9043-0.87681-2.6772 0.11719-0.097656 0.3118-0.11858 0.13881-0.50781-0.47433-1.4983-2.0264-3.6586 0-3.623zm21.429-30.933-2.6639 0.19043-0.95145 1.1419-0.95145 0.19043-1.4537-0.99051-1.5911-0.3418c-0.72893-0.012556-1.3679 0.12626-2.0933 0.19043l-1.1363 0.38923-16.749-1.7208-0.95145 25.116s2.4651-0.22949 4.0074 1.2772l0.49316 0.011161 2.0243-1.3958 0.33064-0.26367v-0.4541c0.28111 0.055803 0.61175-0.16392 0.77916 0.51548l-0.59431 0.46526 0.20717 0.4262 0.482 0.039063c1.0875 0.52316 1.6888 1.2891 2.3591 2.0208 0.28669-0.11579 0.46317-0.28669 0.31738-0.61872-0.50921-0.28739-0.16183-0.35086 0.31738-0.38086 1.07-0.33273 1.6504-1.0854 2.4498-1.649l2.8781-0.20647c1.1321-0.095563 1.5904-0.54966 2.0898-0.98284-0.4262-1.13 0.13044-1.7983 0.38714-2.6067l0.93052-2.2203c0.83147-0.32785 0.92285-0.94378 0.98702-1.5695 0.97517-2.4428 2.3696-4.2229 4.1713-5.3599l0.56083-1.3232c0.96052-0.80008 1.603-1.8032 1.4802-3.2966 0.65848-1.2242 1.1251-2.5251 1.5695-3.8351 0.44155-0.9933 0.45619-1.9622 0.31459-2.7588zm0 0" fill-rule="evenodd" stroke="#000" stroke-linecap="round" stroke-linejoin="round" stroke-width=".5"/>
  <use x="70" y="644" xlink:href="#u"/>
  <use x="90.550781" y="644" xlink:href="#c"/>
  <use x="104.359375" y="644" xlink:href="#b"/>
  <use x="123.347656" y="644" xlink:href="#f"/>
  <use x="142.242188" y="644" xlink:href="#a"/>
  <use x="155.628906" y="644" xlink:href="#b"/>
  <use x="174.617188" y="644" xlink:href="#k"/>
  <use x="204.410156" y="644" xlink:href="#j"/>
  <use x="224.453125" y="644" xlink:href="#i"/>
  <use x="252.453125" y="644" xlink:href="#e"/>
  <use x="274.121094" y="644" xlink:href="#a"/>
  <use x="287.507812" y="644" xlink:href="#a"/>
  <use x="300.890625" y="644" xlink:href="#b"/>
  <use x="319.882812" y="644" xlink:href="#c"/>
  <use x="333.691406" y="644" xlink:href="#c"/>
  <use x="347.5" y="644" xlink:href="#f"/>
  <use x="366.394531" y="644" xlink:href="#a"/>
  <use x="379.777344" y="644" xlink:href="#t"/>
  <use x="389.375" y="644" xlink:href="#d"/>
  <use x="418.359375" y="644" xlink:href="#e"/>
  <use x="440.03125" y="644" xlink:href="#b"/>
  <use x="459.019531" y="644" xlink:href="#a"/>
  <use x="472.40625" y="644" xlink:href="#b"/>
  <use x="491.394531" y="644" xlink:href="#c"/>
  <use x="505.203125" y="644" xlink:href="#h"/>
  <use x="525.136719" y="644" xlink:href="#g"/>
  <use x="545.070312" y="644" xlink:href="#s"/>
  <use x="70" y="672" xlink:href="#r"/>
  <use x="82.183594" y="672" xlink:href="#c"/>
  <use x="95.992188" y="672" xlink:href="#d"/>
  <use x="115.226563" y="672" xlink:href="#q"/>
  <use x="154.152344" y="672" xlink:href="#a"/>
  <use x="167.535156" y="672" xlink:href="#p"/>
  <use x="187.46875" y="672" xlink:href="#b"/>
  <use x="216.207031" y="672" xlink:href="#o"/>
  <use x="239.640625" y="672" xlink:href="#d"/>
  <use x="258.878906" y="672" xlink:href="#g"/>
  <use x="278.8125" y="672" xlink:href="#h"/>
  <use x="308.492188" y="672" xlink:href="#n"/>
  <use x="329.015625" y="672" xlink:href="#c"/>
  <use x="342.824219" y="672" xlink:href="#d"/>
  <use x="362.058594" y="672" xlink:href="#m"/>
  <use x="371.65625" y="672" xlink:href="#b"/>
  <use x="390.648438" y="672" xlink:href="#l"/>
  <use x="407.246094" y="672" xlink:href="#a"/>
 </g>
</svg>
