<?xml version="1.0" encoding="UTF-8"?>
<svg width="700pt" height="700pt" version="1.1" viewBox="0 0 700 700" xmlns="http://www.w3.org/2000/svg" xmlns:xlink="http://www.w3.org/1999/xlink">
 <defs>
  <symbol id="w" overflow="visible">
   <path d="m18.766-1.125c-0.96875 0.5-1.9805 0.875-3.0312 1.125-1.043 0.25781-2.1367 0.39062-3.2812 0.39062-3.3984 0-6.0898-0.94531-8.0781-2.8438-1.9922-1.9062-2.9844-4.4844-2.9844-7.7344 0-3.2578 0.99219-5.8359 2.9844-7.7344 1.9883-1.9062 4.6797-2.8594 8.0781-2.8594 1.1445 0 2.2383 0.13281 3.2812 0.39062 1.0508 0.25 2.0625 0.625 3.0312 1.125v4.2188c-0.98047-0.65625-1.9453-1.1406-2.8906-1.4531-0.94922-0.3125-1.9492-0.46875-3-0.46875-1.875 0-3.3516 0.60547-4.4219 1.8125-1.0742 1.1992-1.6094 2.8555-1.6094 4.9688 0 2.1055 0.53516 3.7617 1.6094 4.9688 1.0703 1.1992 2.5469 1.7969 4.4219 1.7969 1.0508 0 2.0508-0.14844 3-0.45312 0.94531-0.3125 1.9102-0.80078 2.8906-1.4688z"/>
  </symbol>
  <symbol id="d" overflow="visible">
   <path d="m13.734-11.141c-0.4375-0.19531-0.87109-0.34375-1.2969-0.4375-0.41797-0.10156-0.83984-0.15625-1.2656-0.15625-1.2617 0-2.2305 0.40625-2.9062 1.2188-0.67969 0.80469-1.0156 1.9531-1.0156 3.4531v7.0625h-4.8906v-15.312h4.8906v2.5156c0.625-1 1.3438-1.7266 2.1562-2.1875 0.82031-0.46875 1.8008-0.70312 2.9375-0.70312 0.16406 0 0.34375 0.011719 0.53125 0.03125 0.19531 0.011719 0.47656 0.039062 0.84375 0.078125z"/>
  </symbol>
  <symbol id="b" overflow="visible">
   <path d="m17.641-7.7031v1.4062h-11.453c0.125 1.1484 0.53906 2.0078 1.25 2.5781 0.70703 0.57422 1.7031 0.85938 2.9844 0.85938 1.0312 0 2.082-0.14844 3.1562-0.45312 1.082-0.3125 2.1914-0.77344 3.3281-1.3906v3.7656c-1.1562 0.4375-2.3125 0.76562-3.4688 0.98438-1.1562 0.22656-2.3125 0.34375-3.4688 0.34375-2.7734 0-4.9297-0.70312-6.4688-2.1094-1.5312-1.4062-2.2969-3.3789-2.2969-5.9219 0-2.5 0.75391-4.4609 2.2656-5.8906 1.5078-1.4375 3.582-2.1562 6.2188-2.1562 2.4062 0 4.332 0.73047 5.7812 2.1875 1.4453 1.4492 2.1719 3.3828 2.1719 5.7969zm-5.0312-1.625c0-0.92578-0.27344-1.6719-0.8125-2.2344-0.54297-0.57031-1.25-0.85938-2.125-0.85938-0.94922 0-1.7188 0.26562-2.3125 0.79688s-0.96484 1.2969-1.1094 2.2969z"/>
  </symbol>
  <symbol id="j" overflow="visible">
   <path d="m9.2188-6.8906c-1.0234 0-1.793 0.17188-2.3125 0.51562-0.51172 0.34375-0.76562 0.85547-0.76562 1.5312 0 0.625 0.20703 1.1172 0.625 1.4688 0.41406 0.34375 0.98828 0.51562 1.7188 0.51562 0.92578 0 1.7031-0.32812 2.3281-0.98438 0.63281-0.66406 0.95312-1.4922 0.95312-2.4844v-0.5625zm7.4688-1.8438v8.7344h-4.9219v-2.2656c-0.65625 0.92969-1.3984 1.6055-2.2188 2.0312-0.82422 0.41406-1.8242 0.625-3 0.625-1.5859 0-2.8711-0.45703-3.8594-1.375-0.99219-0.92578-1.4844-2.1289-1.4844-3.6094 0-1.7891 0.61328-3.1016 1.8438-3.9375 1.2383-0.84375 3.1797-1.2656 5.8281-1.2656h2.8906v-0.39062c0-0.76953-0.30859-1.332-0.92188-1.6875-0.61719-0.36328-1.5703-0.54688-2.8594-0.54688-1.0547 0-2.0312 0.10547-2.9375 0.3125-0.89844 0.21094-1.7305 0.52344-2.5 0.9375v-3.7344c1.0391-0.25 2.0859-0.44141 3.1406-0.57812 1.0625-0.13281 2.125-0.20312 3.1875-0.20312 2.7578 0 4.75 0.54688 5.9688 1.6406 1.2266 1.0859 1.8438 2.8555 1.8438 5.3125z"/>
  </symbol>
  <symbol id="c" overflow="visible">
   <path d="m7.7031-19.656v4.3438h5.0469v3.5h-5.0469v6.5c0 0.71094 0.14062 1.1875 0.42188 1.4375s0.83594 0.375 1.6719 0.375h2.5156v3.5h-4.1875c-1.9375 0-3.3125-0.39844-4.125-1.2031-0.80469-0.8125-1.2031-2.1797-1.2031-4.1094v-6.5h-2.4219v-3.5h2.4219v-4.3438z"/>
  </symbol>
  <symbol id="i" overflow="visible">
   <path d="m12.766-13.078v-8.2031h4.9219v21.281h-4.9219v-2.2188c-0.66797 0.90625-1.4062 1.5703-2.2188 1.9844s-1.7578 0.625-2.8281 0.625c-1.8867 0-3.4336-0.75-4.6406-2.25-1.2109-1.5-1.8125-3.4258-1.8125-5.7812 0-2.3633 0.60156-4.2969 1.8125-5.7969 1.207-1.5 2.7539-2.25 4.6406-2.25 1.0625 0 2 0.21484 2.8125 0.64062 0.82031 0.42969 1.5664 1.0859 2.2344 1.9688zm-3.2188 9.9219c1.0391 0 1.8359-0.37891 2.3906-1.1406 0.55078-0.76953 0.82812-1.8828 0.82812-3.3438 0-1.457-0.27734-2.5664-0.82812-3.3281-0.55469-0.76953-1.3516-1.1562-2.3906-1.1562-1.043 0-1.8398 0.38672-2.3906 1.1562-0.55469 0.76172-0.82812 1.8711-0.82812 3.3281 0 1.4609 0.27344 2.5742 0.82812 3.3438 0.55078 0.76172 1.3477 1.1406 2.3906 1.1406z"/>
  </symbol>
  <symbol id="f" overflow="visible">
   <path d="m10.5-3.1562c1.0508 0 1.8516-0.37891 2.4062-1.1406 0.55078-0.76953 0.82812-1.8828 0.82812-3.3438 0-1.457-0.27734-2.5664-0.82812-3.3281-0.55469-0.76953-1.3555-1.1562-2.4062-1.1562-1.0547 0-1.8594 0.38672-2.4219 1.1562-0.55469 0.77344-0.82812 1.8828-0.82812 3.3281 0 1.4492 0.27344 2.5586 0.82812 3.3281 0.5625 0.77344 1.3672 1.1562 2.4219 1.1562zm-3.25-9.9219c0.67578-0.88281 1.4219-1.5391 2.2344-1.9688 0.82031-0.42578 1.7656-0.64062 2.8281-0.64062 1.8945 0 3.4453 0.75 4.6562 2.25 1.207 1.5 1.8125 3.4336 1.8125 5.7969 0 2.3555-0.60547 4.2812-1.8125 5.7812-1.2109 1.5-2.7617 2.25-4.6562 2.25-1.0625 0-2.0078-0.21094-2.8281-0.625-0.8125-0.42578-1.5586-1.0859-2.2344-1.9844v2.2188h-4.8906v-21.281h4.8906z"/>
  </symbol>
  <symbol id="e" overflow="visible">
   <path d="m0.34375-15.312h4.8906l4.125 10.391 3.5-10.391h4.8906l-6.4375 16.766c-0.64844 1.6953-1.4023 2.8828-2.2656 3.5625-0.86719 0.6875-2 1.0312-3.4062 1.0312h-2.8438v-3.2188h1.5312c0.83203 0 1.4375-0.13672 1.8125-0.40625 0.38281-0.26172 0.67969-0.73047 0.89062-1.4062l0.14062-0.42188z"/>
  </symbol>
  <symbol id="h" overflow="visible">
   <path d="m16.781-19.766v4.3125c-1.125-0.5-2.2266-0.875-3.2969-1.125-1.0625-0.25781-2.0703-0.39062-3.0156-0.39062-1.25 0-2.1797 0.17969-2.7812 0.53125-0.60547 0.34375-0.90625 0.88281-0.90625 1.6094 0 0.54297 0.20312 0.96875 0.60938 1.2812 0.40625 0.30469 1.1406 0.5625 2.2031 0.78125l2.25 0.45312c2.2695 0.44922 3.8789 1.1406 4.8281 2.0781 0.95703 0.92969 1.4375 2.2461 1.4375 3.9531 0 2.25-0.66797 3.9297-2 5.0312-1.3359 1.0938-3.3711 1.6406-6.1094 1.6406-1.3047 0-2.6055-0.125-3.9062-0.375-1.3047-0.23828-2.6055-0.59766-3.9062-1.0781v-4.4531c1.3008 0.69922 2.5625 1.2266 3.7812 1.5781 1.2188 0.34375 2.3906 0.51562 3.5156 0.51562 1.1562 0 2.0352-0.1875 2.6406-0.5625 0.61328-0.38281 0.92188-0.9375 0.92188-1.6562 0-0.63281-0.21094-1.125-0.625-1.4688-0.41797-0.34375-1.2461-0.65625-2.4844-0.9375l-2.0312-0.4375c-2.043-0.4375-3.5391-1.1328-4.4844-2.0938-0.9375-0.95703-1.4062-2.25-1.4062-3.875 0-2.0312 0.65625-3.5938 1.9688-4.6875s3.1953-1.6406 5.6562-1.6406c1.125 0 2.2734 0.085938 3.4531 0.25 1.1875 0.16797 2.4141 0.42188 3.6875 0.76562z"/>
  </symbol>
  <symbol id="a" overflow="visible">
   <path d="m9.6406-12.188c-1.0859 0-1.9141 0.39062-2.4844 1.1719-0.57422 0.78125-0.85938 1.9062-0.85938 3.375s0.28516 2.5938 0.85938 3.375c0.57031 0.77344 1.3984 1.1562 2.4844 1.1562 1.0625 0 1.875-0.38281 2.4375-1.1562 0.57031-0.78125 0.85938-1.9062 0.85938-3.375s-0.28906-2.5938-0.85938-3.375c-0.5625-0.78125-1.375-1.1719-2.4375-1.1719zm0-3.5c2.6328 0 4.6914 0.71484 6.1719 2.1406 1.4766 1.418 2.2188 3.3867 2.2188 5.9062 0 2.5117-0.74219 4.4805-2.2188 5.9062-1.4805 1.418-3.5391 2.125-6.1719 2.125-2.6484 0-4.7148-0.70703-6.2031-2.125-1.4922-1.4258-2.2344-3.3945-2.2344-5.9062 0-2.5195 0.74219-4.4883 2.2344-5.9062 1.4883-1.4258 3.5547-2.1406 6.2031-2.1406z"/>
  </symbol>
  <symbol id="v" overflow="visible">
   <path d="m14.953-3.7188h-8.2188l-1.3125 3.7188h-5.2812l7.5625-20.406h6.2656l7.5625 20.406h-5.2812zm-6.9062-3.7812h5.5781l-2.7812-8.125z"/>
  </symbol>
  <symbol id="g" overflow="visible">
   <path d="m2.3594-15.312h4.8906v15.312h-4.8906zm0-5.9688h4.8906v4h-4.8906z"/>
  </symbol>
  <symbol id="u" overflow="visible">
   <path d="m0.82812-20.406h5.0469l3.5312 14.828 3.5-14.828h5.0781l3.5 14.828 3.5156-14.828h5.0156l-4.8125 20.406h-6.0781l-3.7031-15.516-3.6562 15.516h-6.0781z"/>
  </symbol>
  <symbol id="t" overflow="visible">
   <path d="m0.98438-15.312h4.7656l2.5625 10.547 2.5781-10.547h4.0938l2.5781 10.438 2.5781-10.438h4.75l-4.0312 15.312h-5.3438l-2.5781-10.531-2.5781 10.531h-5.3438z"/>
  </symbol>
  <symbol id="s" overflow="visible">
   <path d="m12.422-21.281v3.2188h-2.7031c-0.6875 0-1.1719 0.125-1.4531 0.375-0.27344 0.25-0.40625 0.6875-0.40625 1.3125v1.0625h4.1875v3.5h-4.1875v11.812h-4.8906v-11.812h-2.4375v-3.5h2.4375v-1.0625c0-1.6641 0.46094-2.8984 1.3906-3.7031 0.92578-0.80078 2.3672-1.2031 4.3281-1.2031z"/>
  </symbol>
  <symbol id="r" overflow="visible">
   <path d="m16.547-12.766c0.61328-0.94531 1.3477-1.6719 2.2031-2.1719 0.85156-0.5 1.7891-0.75 2.8125-0.75 1.7578 0 3.0977 0.54688 4.0156 1.6406 0.92578 1.0859 1.3906 2.6562 1.3906 4.7188v9.3281h-4.9219v-7.9844-0.35938c0.007813-0.13281 0.015625-0.32031 0.015625-0.5625 0-1.082-0.16406-1.8633-0.48438-2.3438-0.3125-0.48828-0.82422-0.73438-1.5312-0.73438-0.92969 0-1.6484 0.38672-2.1562 1.1562-0.51172 0.76172-0.77344 1.8672-0.78125 3.3125v7.5156h-4.9219v-7.9844c0-1.6953-0.14844-2.7852-0.4375-3.2656-0.29297-0.48828-0.8125-0.73438-1.5625-0.73438-0.9375 0-1.6641 0.38672-2.1719 1.1562-0.51172 0.76172-0.76562 1.8594-0.76562 3.2969v7.5312h-4.9219v-15.312h4.9219v2.2344c0.60156-0.86328 1.2891-1.5156 2.0625-1.9531 0.78125-0.4375 1.6406-0.65625 2.5781-0.65625 1.0625 0 2 0.25781 2.8125 0.76562 0.8125 0.51172 1.4258 1.2305 1.8438 2.1562z"/>
  </symbol>
  <symbol id="q" overflow="visible">
   <path d="m17.75-9.3281v9.3281h-4.9219v-7.1094c0-1.3438-0.03125-2.2656-0.09375-2.7656s-0.16797-0.86719-0.3125-1.1094c-0.1875-0.3125-0.44922-0.55469-0.78125-0.73438-0.32422-0.17578-0.69531-0.26562-1.1094-0.26562-1.0234 0-1.8242 0.39844-2.4062 1.1875-0.58594 0.78125-0.875 1.8711-0.875 3.2656v7.5312h-4.8906v-21.281h4.8906v8.2031c0.73828-0.88281 1.5195-1.5391 2.3438-1.9688 0.83203-0.42578 1.75-0.64062 2.75-0.64062 1.7695 0 3.1133 0.54688 4.0312 1.6406 0.91406 1.0859 1.375 2.6562 1.375 4.7188z"/>
  </symbol>
  <symbol id="p" overflow="visible">
   <path d="m2.5781-20.406h5.875l7.4219 14v-14h4.9844v20.406h-5.875l-7.4219-14v14h-4.9844z"/>
  </symbol>
  <symbol id="o" overflow="visible">
   <path d="m2.1875-5.9688v-9.3438h4.9219v1.5312c0 0.83594-0.007813 1.875-0.015625 3.125-0.011719 1.25-0.015625 2.0859-0.015625 2.5 0 1.2422 0.03125 2.1328 0.09375 2.6719 0.070313 0.54297 0.17969 0.93359 0.32812 1.1719 0.20703 0.32422 0.47266 0.57422 0.79688 0.75 0.32031 0.16797 0.69141 0.25 1.1094 0.25 1.0195 0 1.8203-0.39062 2.4062-1.1719 0.58203-0.78125 0.875-1.8672 0.875-3.2656v-7.5625h4.8906v15.312h-4.8906v-2.2188c-0.74219 0.89844-1.5234 1.5586-2.3438 1.9844-0.82422 0.41406-1.7344 0.625-2.7344 0.625-1.7617 0-3.1055-0.53906-4.0312-1.625-0.92969-1.082-1.3906-2.6602-1.3906-4.7344z"/>
  </symbol>
  <symbol id="n" overflow="visible">
   <path d="m17.75-9.3281v9.3281h-4.9219v-7.1406c0-1.3203-0.03125-2.2344-0.09375-2.7344s-0.16797-0.86719-0.3125-1.1094c-0.1875-0.3125-0.44922-0.55469-0.78125-0.73438-0.32422-0.17578-0.69531-0.26562-1.1094-0.26562-1.0234 0-1.8242 0.39844-2.4062 1.1875-0.58594 0.78125-0.875 1.8711-0.875 3.2656v7.5312h-4.8906v-15.312h4.8906v2.2344c0.73828-0.88281 1.5195-1.5391 2.3438-1.9688 0.83203-0.42578 1.75-0.64062 2.75-0.64062 1.7695 0 3.1133 0.54688 4.0312 1.6406 0.91406 1.0859 1.375 2.6562 1.375 4.7188z"/>
  </symbol>
  <symbol id="m" overflow="visible">
   <path d="m2.5781-20.406h8.7344c2.5938 0 4.582 0.57812 5.9688 1.7344 1.3945 1.1484 2.0938 2.7891 2.0938 4.9219 0 2.1367-0.69922 3.7812-2.0938 4.9375-1.3867 1.1562-3.375 1.7344-5.9688 1.7344h-3.4844v7.0781h-5.25zm5.25 3.8125v5.7031h2.9219c1.0195 0 1.8047-0.25 2.3594-0.75 0.5625-0.5 0.84375-1.2031 0.84375-2.1094 0-0.91406-0.28125-1.6172-0.84375-2.1094-0.55469-0.48828-1.3398-0.73438-2.3594-0.73438z"/>
  </symbol>
  <symbol id="l" overflow="visible">
   <path d="m2.3594-15.312h4.8906v15.031c0 2.0508-0.49609 3.6172-1.4844 4.7031-0.98047 1.082-2.4062 1.625-4.2812 1.625h-2.4219v-3.2188h0.85938c0.92578 0 1.5625-0.21094 1.9062-0.625 0.35156-0.41797 0.53125-1.2461 0.53125-2.4844zm0-5.9688h4.8906v4h-4.8906z"/>
  </symbol>
  <symbol id="k" overflow="visible">
   <path d="m14.719-14.828v3.9844c-0.65625-0.45703-1.3242-0.79688-2-1.0156-0.66797-0.21875-1.3594-0.32812-2.0781-0.32812-1.3672 0-2.4336 0.40234-3.2031 1.2031-0.76172 0.79297-1.1406 1.9062-1.1406 3.3438 0 1.4297 0.37891 2.543 1.1406 3.3438 0.76953 0.79297 1.8359 1.1875 3.2031 1.1875 0.75781 0 1.4844-0.10938 2.1719-0.32812 0.6875-0.22656 1.3203-0.56641 1.9062-1.0156v4c-0.76172 0.28125-1.5391 0.48828-2.3281 0.625-0.78125 0.14453-1.5742 0.21875-2.375 0.21875-2.7617 0-4.9219-0.70703-6.4844-2.125-1.5547-1.4141-2.3281-3.3828-2.3281-5.9062 0-2.5312 0.77344-4.5039 2.3281-5.9219 1.5625-1.4141 3.7227-2.125 6.4844-2.125 0.80078 0 1.5938 0.074219 2.375 0.21875 0.78125 0.13672 1.5547 0.35156 2.3281 0.64062z"/>
  </symbol>
 </defs>
 <g>
  <path d="m271.34 235.79-0.99219-1.0078 0.99219 0.10156zm-51.473 8.9492v-2.0156l-0.59766-3.2656-1.7812-2.3359h-2.7266c-0.71875 0.95703-1.4453 1.9766-1.707 2.4141-0.042969 0.69531-0.4375 1.0586-3.2812 1.6406v2.4258l2.7422 4.5547 2.3125 1.2891 3.0586-1.8086zm14.008-10.805 0.70703-0.44922c0.50781-0.32031 1.1641-0.28125 1.6367 0.09375l0.94531 0.77344 0.63281-0.38672 0.86719-1.1797c0.26172-0.35938 0.68359-0.57031 1.125-0.57031h1.3711c0.62891 0 1.1758 0.42188 1.3477 1.0234l0.27344 0.96875 0.51953-0.20312 0.24219-1.9648c0.027344-0.23437 0.11719-0.46484 0.26172-0.66016l0.75781-1.0312v-1.6406c0-0.62109 0.41016-1.1719 1.0078-1.3438l1.9258-0.55859 1.2656-1.8047 0.63281-3.207c0.089844-0.46484 0.41016-0.84375 0.83984-1.0234l1.7148-0.69922c0.3125-0.125 0.66016-0.13281 0.98047-0.027343l1.3477 0.46094 0.62891-0.48047 2.2891-3c0.26172-0.34766 0.67578-0.54688 1.1133-0.54688h2.2852l0.62891-1.0586c0.14453-0.24609 0.37109-0.44922 0.63281-0.56641l5.4883-2.4531c0.32422-0.14453 0.69531-0.15625 1.0234-0.050782l3.7422 1.2773 2.4023-0.54688 1.1328-0.86328c0.24609-0.19141 0.54297-0.29297 0.85156-0.29297h8.4062l1.3984-1.1875 1.1758-2.9961 1.125-10.902-1.8945 0.36328c-0.089844 0.015625-0.17188 0.023437-0.26172 0.023437-0.30859 0-0.60547-0.10156-0.85156-0.28516l-1.3711-1.0547c-0.60547-0.46484-0.72656-1.3281-0.27344-1.9414l0.75781-1.0312v-0.375l-2.1719-0.22266c-0.39062-0.039062-0.75-0.24219-0.98438-0.55859l-0.60938-0.82812h-1.0078c-0.375 0-0.73438-0.15234-0.99609-0.42188l-1.5586-1.5898-1.1719-0.59375c-0.46484-0.23437-0.76172-0.72266-0.76172-1.25v-1.1016l-22.586-19.203h-4.5039l-0.98047 38.414 0.74609 1.0117c0.24219 0.33594 0.33203 0.76172 0.23047 1.1641l-1.0312 4.1992c-0.16406 0.66797-0.78906 1.1328-1.4766 1.0586l-16.469-1.3984c-0.09375-0.003906-0.18359-0.023438-0.26953-0.050782l-0.33203 0.33594c-0.33203 0.33594-0.8125 0.48047-1.2773 0.39062l-3.8516-0.80469-0.5 0.84375c-0.25391 0.42578-0.82422 0.57812-1.2031 0.6875-0.48828 0-0.94141-0.25391-1.1914-0.67188l-0.83594-1.3672v2.0391c0 0.57031-0.34766 1.082-0.86719 1.293l-0.57031 0.23438c0.39062 1.4961 0.41406 1.832 0.41406 1.9727 0 0.16797 0 0.46875-0.36328 1.3477l0.87891 0.71875c0.15625 0.12891 0.28125 0.28516 0.37109 0.46484 1.1719 2.3906 1.1719 2.8008 1.1719 3.0703 0 0.17188-0.023437 0.58984-0.63672 2.5039 0.30078-0.28516 0.71094-0.44141 1.1211-0.39062 0.42969 0.050781 0.81641 0.30078 1.0352 0.67578l0.20312 0.34766 0.45312-0.37109c0.55469-0.46094 1.3711-0.41406 1.8828 0.10547 0.25781 0.26172 0.55859 0.53906 0.81641 0.75 0.19141-0.15234 0.38672-0.3125 0.55859-0.44922v-0.71875c0-0.46484 0.23438-0.90234 0.61719-1.1641 0.38672-0.26172 0.875-0.30859 1.3086-0.13281l1.7188 0.69922c0.45312 0.18359 0.77734 0.58984 0.85156 1.0703l0.33984 2.1016 0.011718 1.1875 1.0586 0.64453c0.33594 0.20703 0.56641 0.54297 0.63672 0.92969 0.078125 0.37891-0.011719 0.78516-0.24609 1.0977l-0.035156 0.042969c0.19531 0.24219 0.30859 0.54687 0.30859 0.875v1.5195zm45.699 15.789v-6.6523c0-0.36328 0.14453-0.71875 0.39844-0.98047l3.7188-3.793v-0.82812c0-0.36328 0.14453-0.71875 0.40234-0.98047l0.62891-0.63672v-1.4961l-0.83594-1.4219c-0.18359-0.3125-0.24219-0.69531-0.15234-1.0469l0.16797-0.6875-2.4062-2.7031c0.089843 1.6055-0.30859 2.0156-0.54297 2.2578-0.35938 0.36328-2.4961 2.1914-2.4961 2.1914-0.375 0.32031-0.89453 0.41016-1.3594 0.25781l-1.2812-0.4375-1.668 1.4883v1.5469l2.2773 2.0312c0.41406 0.37109 0.57031 0.94531 0.39844 1.4766-0.12891 0.39844-0.25781 0.88672-0.27344 1.0234 0.0625 0.35156 0.63281 2.3594 0.63672 2.3633 0.039062 0.14063 0.054687 0.28125 0.050781 0.42578l-0.33594 9.4883 1.5195 3.4883 1.1602-0.11719-0.007813-2.4141c0-0.12891 0.015626-0.25391 0.050782-0.375l0.54297-1.9375-0.45312-0.92578c-0.089844-0.1875-0.14063-0.39453-0.14063-0.60547zm-5.4883 3.0938 0.33984-9.5859c-0.68359-2.4453-0.68359-2.793-0.68359-2.9688 0-0.23047 0.050781-0.54297 0.15234-0.94141l-1.8594-1.6562-0.26172 2.6953 0.50781 1.0469c0.14453 0.29297 0.17969 0.62891 0.10156 0.94531l-0.53125 2.168 0.64453 0.875c0.23047 0.30859 0.32031 0.69922 0.24609 1.0742l-0.60547 3.3984 0.48828 0.99219c0.20703 0.42188 0.18359 0.91797-0.050782 1.3203-0.17969 0.30859-0.36328 0.67578-0.46875 0.94141 0.45313 0.59766 1.3086 1.7539 2.4922 3.3594l0.89453-0.089844-1.2891-2.9609c-0.085938-0.19141-0.125-0.39844-0.11719-0.61328zm0.46484-22.695c0.37109-0.33594 0.90234-0.44922 1.3828-0.28125l1.3047 0.44922c0.46484-0.40234 1.0977-0.94141 1.4609-1.2695 0-0.3125-0.042968-0.85547-0.11719-1.3438l-0.21094-0.53906-0.93359 0.15625c-0.33984 0.0625-0.69531-0.011719-0.98438-0.20312l-2.7422-1.7539c-0.40234-0.25781-0.64844-0.69922-0.64844-1.1797v-1.4727l-2.2773-2.0312c-0.15625-0.14062-0.27344-0.30859-0.35938-0.5l-1.0312-2.4531c-0.10547-0.25781-0.13281-0.54297-0.085937-0.81641l0.23437-1.2031-1.5391-0.52734-4.5742 2.043-0.80469 1.3672c-0.25391 0.42578-0.71094 0.6875-1.2031 0.6875h-2.3984l-1.9805 2.5977c-0.078124 0.10156-0.16406 0.18359-0.26172 0.26172l-1.3711 1.0547c-0.36328 0.28125-0.85547 0.36328-1.3008 0.21094l-1.5625-0.53125-0.54297 0.23047-0.54297 2.7617c-0.035156 0.19141-0.11719 0.37109-0.23047 0.53125l-1.7188 2.4531c-0.18359 0.25781-0.44922 0.45313-0.75781 0.54297l-1.3945 0.40234v1.0547c0 0.29688-0.09375 0.58984-0.27344 0.82813l-0.8125 1.1016-0.19531 1.5898 1.3555 0.91797c0.22266 0.15234 0.39844 0.36328 0.50391 0.61719l0.66797 1.5898h0.87891l3.5391-1.3086c0.4375-0.16406 0.92969-0.09375 1.3086 0.17969l0.47656 0.34766 0.035156-0.25781-0.32031-2.2695c-0.050781-0.35938 0.039063-0.72656 0.25781-1.0234l1.0312-1.3984c0.26172-0.35938 0.68359-0.57031 1.125-0.57031h9.625l1.4336-0.32422c0.46094-0.10156 0.94531 0.050781 1.2812 0.39062l0.67187 0.6875 2.3125 0.23438zm-61.602 4.7422c0.26172-0.34766 0.67578-0.54688 1.1133-0.54688h4.1172c0.4375 0 0.84375 0.20703 1.1133 0.55469l2.4023 3.1523c0.13281 0.17187 0.23047 0.37891 0.26172 0.59766l0.59766 3.375c1.043-0.3125 1.3086-0.33203 1.4492-0.33203 0.30859 0 0.81641 0 2.5703 1.3438 0.3125 0.24219 0.51563 0.60547 0.54297 1.0078l0.29297 3.9258 0.23438 0.17969 0.10156-0.15234c0-0.51953 0.28516-0.99609 0.74609-1.2383 0.46875-0.24219 1.0117-0.20703 1.4453 0.078125l0.23438 0.16406 0.23047-0.078125 0.30859-1.0938-0.62891-0.84375c-0.24219-0.33203-0.33203-0.75-0.23438-1.1523 0.09375-0.40234 0.35938-0.73828 0.72266-0.92969l0.99609-0.50781c-0.085938-0.32031-0.050781-0.66016 0.10156-0.95703l0.30078-0.60938-0.82812-1.0586c-0.23438-0.29688-0.33594-0.68359-0.28516-1.0586l0.33984-2.4531c0.035156-0.24609 0.23438-0.41406 0.39062-0.60547l-1.0195-1.0039c-0.26172-0.26172-0.41406-0.62109-0.41406-0.99609l-0.085938-1.125c-0.42188-0.14453-0.75-0.48047-0.88672-0.90625-0.13281-0.42578-0.054687-0.89062 0.20703-1.25l0.125-0.17188-0.42187-0.25391c-0.41406-0.25781-0.66797-0.70703-0.66797-1.1914l-0.023438-1.875c-0.37109 0.28516-1.1211 0.875-1.3555 1.1094-0.26172 0.26953-0.74609 0.46484-1.1211 0.46484h-0.011719c-0.27344 0-0.82812-0.015625-1.9805-0.98438l-0.76562 0.62891c-0.3125 0.25781-0.72656 0.35938-1.1328 0.29297-0.40234-0.074219-0.75-0.3125-0.95703-0.66797l-0.125-0.21094c-0.41016 0.24609-0.92578 0.27344-1.3672 0.050781l-1.3711-0.69922c-0.46484-0.23438-0.76172-0.72266-0.76172-1.25h-2.7148c-0.22266 0-0.44141-0.050782-0.63672-0.15234-1.1914-0.60938-2.5469-1.2773-3.3867-1.6641-0.023437 0.066407-0.066406 0.18359-0.074219 0.21875 0.003907 0.57812-0.35156 0.99219-0.83594 1.293l0.35938 0.73828c0.18359 0.37891 0.19141 0.82812 0.003906 1.2148-0.18359 0.38672-0.53125 0.66797-0.94531 0.76172l-3.9219 0.92578-1.7305 2.5977 1.7305 2.6445 3.4609 4.3438c0.8125-0.15625 1.4766-0.29297 1.875-0.38672 0.36719-0.62109 1.0391-1.582 2.3164-3.2578zm-10.164-14.398c0.22266-0.11328 0.46875-0.17969 0.71094-0.15234 0 0 1.0977 0.054688 2.4023 0.12891-0.52734-0.17188-1.3438-0.47656-2.8164-1.0703l-3.5547 1.5195c-0.15625 0.066406-0.32422 0.11328-0.49219 0.11719l-3.2656 0.15234c0.089844 0.46875 0.30859 1.3047 0.46875 1.8984l4.6758-1.6172zm-6.4414-4.9141c0.95312-0.26172 1.5508-0.4375 1.5508-0.4375 0.25391-0.074219 0.51953-0.066406 0.76562 0l1.9141 0.55859 1.9375-0.84375c0.26172-0.11719 0.55859-0.14453 0.83984-0.089844l1.7148 0.35156c0.18359 0.039062 0.35156 0.11328 0.50781 0.21875 0.71094 0.48047 1.5078 0.98047 1.8555 1.1602h1.4766c0.60547 0 1.1406 0.38672 1.3281 0.96484l0.34766 1.0547c0.12891 0.38672 0.085937 0.81641-0.12891 1.1641-0.21094 0.34766-0.56641 0.58984-0.96484 0.65625 0 0-0.88672 0.14062-1.6445 0.25391 1.2227 0.0625 2.2695 0.11719 2.4453 0.11719 0.33594 0 0.65625 0 4.7891 2.1016l2.7656-0.007812c0.14062-0.45313 0.28125-0.93359 0.32031-1.1641-0.09375 0.035156-0.42188-0.73438-0.76172-1.4453l-1.4766-1.2031c-0.50391-0.41406-0.65625-1.1211-0.37109-1.7031 0.25781-0.51953 0.51562-1.1367 0.55859-1.3164-0.0625-0.17969-0.42188-1.4297-0.57031-1.9727l-4.2852-5.3828c-0.20312-0.24609-0.30859-0.55469-0.30859-0.875v-0.89063l-1.2031-0.17187c-0.35156-0.050782-0.67578-0.24219-0.90234-0.51953 0 0-0.87891-1.1328-1.3711-1.707-0.72266-0.0625-2.4961 0.023437-3.9414 0.13281l-3.2695-0.3125-2.3125 1.1758-0.19141 1.0703-3.0859 4.1992 1.7148 4.5547c0.003907-0.007813-0.011718 0.12109-0.042968 0.30859zm2.6172-13.781 0.39844-0.20312c0.23438-0.11719 0.51953-0.17969 0.77734-0.14453l3.4336 0.35156c4.8594-0.41016 5.2539 0 5.6602 0.41406 0.24609 0.25391 1.0117 1.2031 1.4688 1.7734l1.8555 0.26953c0.6875 0.10156 1.1992 0.69531 1.1992 1.3906v1.6133l3.375 4.2383v-2.3477c0-0.57031 0.34766-1.082 0.875-1.293l1.7188-0.69922c0.63281-0.26172 1.3594-0.015624 1.7266 0.56641l0.51563 0.83984c0.33984-0.37891 0.85156-0.55469 1.3828-0.41406l3.9883 0.88672 1.1875-1.2109c0.39844-0.41016 0.99609-0.53125 1.5273-0.3125 0.45312 0.18359 0.76562 0.58984 0.85156 1.0586l14.016 1.1914 0.58984-2.4023-0.64453-0.875c-0.18359-0.24609-0.28125-0.55469-0.26953-0.86328l1.0312-40.258c0.015625-0.76172 0.63672-1.3672 1.3984-1.3672h2.5742l-8.8203-7.5-0.60938 3.5391c-0.11719 0.69922-0.73828 1.2695-1.4453 1.1602l-12.762-0.63281c-1.2812 11.008-1.5117 11.09-2.4766 11.426-0.23438 0.078125-0.48047 0.09375-0.71875 0.050781-0.50781 0.14062-1.7188 0.67578-2.6953 1.1641l-0.51953 0.52734-0.63672 6.8594c-0.066406 0.72266-0.67578 1.2695-1.3945 1.2695-0.039063 0-0.078125 0-0.11719-0.003907l-16.789-1.3984 1.2891 2.6328v3.5l-1.3711 2.1016 1.3711 2.8008-0.33984 5.9531zm17.824-28.848c0.027344-0.32031 0.16797-0.61719 0.39062-0.84375l1.0312-1.0547c0.10547-0.11328 0.23047-0.20313 0.36328-0.26953 1.5273-0.78516 2.5859-1.2266 3.3438-1.4453 0.33203-1.793 0.92578-6.3242 1.3945-10.422 0.085937-0.72656 0.72656-1.3672 1.4609-1.2383l12.836 0.63672 0.80078-4.6016v-1.0312l-17.961-1.1992-1.4062 2.8633-2.4023 1.0547-2.4023 2.1016-2.0625 4.1992-1.3711 2.4531-4.8047 4.5547-2.4023 4.5547-2.7422 3.1523-0.11328 1.2266 15.488 1.2891zm-9.9023 52.73-0.25781-0.52734c-0.18359-0.375-0.19141-0.81641-0.011719-1.1992 0.14062-0.30078 0.4375-0.47656 0.73438-0.60938-1.3789-0.066406-2.9219-0.14453-3.625-0.18359l-1.7266 0.87891-3.4258 1.1914 1.2422 0.89062 1.6953 3.4609 1.7734-2.6602c0.19531-0.29688 0.5-0.50391 0.84375-0.58203zm131.41-19.168 0.99609-13.574c0.015625-0.23438 0.09375-0.46484 0.22266-0.66016l0.76562-1.1641c-1.6797-1.7969-1.6797-2.1836-1.6797-2.6133 0-0.15234 0.027344-0.39062 0.078125-0.67188 0.015625-0.089843 0.039062-0.21875 0.054687-0.33594-0.039062-0.035156-0.085937-0.066406-0.125-0.10547-1.1016-0.95312-1.7305-1.5352-1.7305-2.3867 0-0.25391-0.085938-2.8047-0.14453-4.7109l-1.6641 0.73828c-0.48828 0.21875-1.0469 0.14062-1.457-0.19531l-3.207-2.6133-5.3086-1.5078c-4.5039 2.7383-20.867 12.695-21.531 13.035-0.42578 0.29297-3.0117 2.8242-5.1289 4.9844-0.20312 0.20703-0.46094 0.33984-0.73828 0.39844l-6.2148 1.1875-1.2305 11.934c-0.011719 0.125-0.039063 0.24609-0.089844 0.36328l-1.3711 3.5c-0.085938 0.21875-0.22266 0.40234-0.39844 0.55469l-2.0625 1.7539c-0.25391 0.21875-0.57812 0.33594-0.90625 0.33594h-8.4453l-0.99609 0.76172c-0.16406 0.125-0.34766 0.21094-0.54297 0.25391l-3.0898 0.69922c-0.035156 0.003907-0.074219-0.011718-0.10547-0.003906l-0.11719 0.58984 0.73828 1.7656 2.5078 2.2383c0.29688 0.26172 0.46484 0.64453 0.46484 1.0469v1.332l1.6406 1.0469 1.5234-0.25781c0.66016-0.12891 1.3008 0.25781 1.5391 0.86719l0.26953 0.6875 0.93359-0.15625c0.49219-0.078124 0.96484 0.089844 1.2812 0.44922l1.4492 1.625 0.24219-1.6016c0.042969-0.29297 0.17969-0.56641 0.37891-0.77344l1.832-1.8633 0.58203-1.7852c0.11719-0.35156 0.36328-0.64453 0.69531-0.8125l2.7422-1.3984c0.26953-0.13281 0.57031-0.18359 0.875-0.13281l1.6016 0.27344 0.95703-0.48828c0.37891-0.19531 0.83594-0.20703 1.2266-0.023438l3.7734 1.7539c0.25391 0.11719 0.46484 0.30078 0.60547 0.53906l1.1211 1.8242 3.7305-1.3594c0.33203-0.12891 0.70703-0.11719 1.043 0.035156l2.4023 1.0547 2.2188 1.2812h2.3008l3.4258-2.2227c0.25391-0.16797 0.56641-0.24609 0.86328-0.22266l4.8047 0.35156c0.24609 0.015625 0.48047 0.10156 0.6875 0.24219 0.79688 0.53906 1.6758 1.0703 2.2305 1.3594 0.98047-0.92969 2.9297-2.6562 3.8477-2.6562 0.13281-0.003906 0.44141-0.050781 0.77734-0.10156-0.46094-2.9102-0.066407-3.3164 0.28125-3.6719 0.38281-0.45703 5.2422-6.5781 8.5742-10.793zm86.426 85.941h-14.27c0.375 0.48828 0.75 0.96875 0.90234 1.125 0.57031 0.57812 0.57031 1.4102 0.57031 2.6836 0 0.26953-0.003906 0.53125 0 0.73438 0.09375 0.15625 0.16406 0.33203 0.19141 0.51953 0.15625 1.082-0.41406 1.4219-2.0781 1.9336 0.41016 0.19141 0.75781 0.33984 0.89453 0.37891 0.53906 0 0.8125 0.29297 1.0469 0.77344 0.39844 0.81641 0.375 1.1797-2.5859 4.9688l-3.1875 3.2656c-0.26172 0.26953-0.62109 0.42188-1.0039 0.42188h-0.32031v0.5l0.97266 3.3047c0.125 0.42188 0.042969 0.875-0.21875 1.2266l-0.60547 0.81641 0.36328 1.1094 2.5156 2.5664c0.125 0.12891 0.23047 0.28125 0.29687 0.44922l1.7188 4.1992 0.37891 1.8203 0.62891 1.2812 1.668 0.24219c0.15234 0.023437 0.29688 0.066406 0.4375 0.14062l6.668 3.4062 3.6172 0.61719 1.0859-0.27344c0.58203-0.15234 1.1875 0.089843 1.5195 0.58984l2.0625 3.1523c0.14453 0.23047 0.23047 0.49219 0.23047 0.76562v3.8516l0.73437 1.3945h2.2383l0.67188-0.46094c0.39062-0.26953 0.89453-0.32422 1.332-0.12891l3.7305 1.5859 2.8438-0.52734 1.0469-1.332c0.26172-0.33984 0.67188-0.53906 1.1016-0.53906h4.0938l6.5-3.6523-0.47656-0.72656-2.0625-1.0547v-1.0547l-1.3711-4.1992-0.33984-2.4531 1.0312-1.7539-1.0312-2.4531 0.33984-1.0547 1.3711-0.69922-2.7422-3.5-1.0312-0.69922 0.6875-2.4531 0.91797-2.8047-7.1133-5.7305c-0.33203-0.26172-0.51953-0.66797-0.51953-1.0938v-2.0039zm-5.2578 47.656-0.20312-1.2148c-0.074219-0.44141 0.066406-0.89063 0.37891-1.2109l1.0977-1.1133-0.64453-1.7422-1.7188-2.043-6.4062-3.2695-2.1719-0.3125c-0.46094-0.066406-0.85156-0.35156-1.0547-0.76562l-0.50781-1.0469-1.2695 0.37109-4.5586 0.33594-0.36328 0.92969c-0.066406 0.17188-0.17188 0.33594-0.30078 0.46484l-1.3672 1.3945 0.59375 1.2148c0.12891 0.25781 0.16797 0.55469 0.125 0.83984l-0.68359 4.1992-0.69531 1.8555c-0.0625 0.57812-0.26172 2.4375-0.30859 3.2578 0.29297 0.35156 1.0859 1.0469 1.8203 1.5859 0.18359 0.11328 0.38672 0.23438 0.58984 0.34766 0.14453-0.45312 0.51562-0.80078 0.98047-0.91797l1.3789-0.35156c0.40234-0.11719 0.86328-0.015625 1.2031 0.25391 0.33984 0.26172 0.54297 0.67188 0.54297 1.1016v6.3008c0 0.57031-0.34766 1.082-0.86719 1.293-0.53125 0.21094-1.1367 0.089844-1.5273-0.3125l-0.25391-0.25781-0.76562 0.46875c-0.32031 0.19531-0.70703 0.25391-1.0742 0.16406l-2.7422-0.69922c-0.62109-0.15625-1.0547-0.71875-1.0547-1.3555v-1.7539l-0.39844-1.5195c-0.92969-0.10156-2.25-0.23438-2.6641-0.23438-0.45312 0-1.1914 0-2.1172-1.793-0.25781 0.24609-0.60547 0.39062-0.96875 0.39062h-2.4023c-0.125 0-0.25391-0.015625-0.375-0.050781-1.6016-0.44141-3.5352-0.95703-3.8711-1.0078h-0.003906c-0.91797 0-1.3672-0.79688-1.6523-1.8828l-2.7773 0.46875c-0.32422 0.054687-0.62891-0.039063-0.89453-0.18359v3.707c0 0.18359-0.039062 0.37109-0.11328 0.54297l-1.0312 2.4531c-0.21875 0.51562-0.72656 0.85547-1.2891 0.85547l-6.8516 0.003906v13.469l4.4531 4.9766c0.37109-0.074218 0.74609-0.15234 1.082-0.21875l4.2773-0.37109c0.32031-0.023438 0.67188 0.0625 0.94141 0.26172l2.1094 1.5391 6.7305 0.89453 1.9102-2.5039c0.078125-0.10547 0.17188-0.19531 0.28125-0.27344l3.7734-2.8008c0.13281-0.10156 0.28516-0.17188 0.44141-0.22266l1.5-0.4375c0.30078-2.6992 0.66016-3.8203 1.9805-3.8203 0.23047-0.039063 2.3086-0.54688 4.1172-1.0078l0.91406-0.015625-0.19531-0.70703c-0.19531-0.69922 0.17969-1.4375 0.86719-1.6914l11.57-4.2383-0.18359-0.23438c-0.27344-0.35156-0.36328-0.8125-0.24609-1.2422l2.3203-7.7734-0.29297-1.7734c-0.089844-0.53906 0.14062-1.082 0.59375-1.3906zm35.809-50.102v-18.207c0-0.3125 0.10547-0.61719 0.29688-0.86328l2.1094-2.6953c-0.29297-0.011719-0.57031-0.042969-0.80078-0.21094l-1.5898-1.1602-2.6094 1.8633c-1.9375 2.0117-2.4141 2.0117-2.8711 2.0117-0.023437 0-2.3008-0.17969-3.4102-0.86328-0.19141-0.011719-0.51562-0.011719-0.75-0.011719-0.85547 0-1.668 0-2.3125-0.33203-0.59766-0.30859-3.8125-2.207-4.6719-2.7148l-5.2539-1.0039-6.418-0.29688-0.68359 0.64453 1.3438 1.0117c0.42578 0.32422 0.63281 0.85547 0.53125 1.3828l-0.21875 1.1016 1.3008 1.5898c0.10156 0.125 0.17969 0.26172 0.23438 0.41406 1.457 4.082 1.457 4.4258 1.457 4.6719 0 0.17188 0 0.54297-0.73828 3.1758-0.042969 0.16797-0.125 0.32422-0.23047 0.46484l-4.1836 5.5781v4.2852l16.469 9.8008c0.42578 0.25391 0.68359 0.70703 0.68359 1.2031l0.003907 2.1406 6.1211 4.9297 1.9141-2.6875 1.7148-4.1992 0.6875-2.8008 2.0625-0.69922 2.0625-2.8008 0.48047-0.29688-2.4961-3.6328c-0.14453-0.23828-0.23438-0.51563-0.23438-0.79297zm-28.844 69.082-1.2383 3.4844c0.19141 0.86328 0.44141 1.7266 0.62891 2.1445 0.33203 0.14062 0.75781 0.42969 1.3086 1.0039l0.011718-0.023437v-1.8203c0-0.62109 0.41016-1.1719 1.0078-1.3438l1.5117-0.4375 0.51953-4.5078-3.6172-5.2305-1.0586-0.53906c-0.41016-0.21094-0.69531-0.60547-0.75-1.0625l-0.6875-5.2539c-0.027344-0.23437 0-0.46875 0.085937-0.69531l1.3711-3.5c0.089843-0.23438 0.26172-0.41016 0.44922-0.55859l-0.37891-0.72656c-0.10547-0.20312-0.16406-0.42578-0.16406-0.64844l-0.003907-3.7969-1.2812-1.9609-0.40234 0.10156c-0.19531 0.050782-0.38672 0.054688-0.58203 0.023438l-0.5-0.085938 1.0195 2.7734c0.19141 0.50781 0.066406 1.0742-0.3125 1.4688l-1.2227 1.2422 0.23047 1.3984c0.089844 0.53906-0.14062 1.082-0.59375 1.3906l-0.29297 0.19531 0.20313 1.2148c0.035156 0.21094 0.023437 0.42969-0.039063 0.63672l-2.207 7.3359 0.93359 1.1914-0.011719 0.011719c0.011719 0.011719 0.027343 0.011719 0.039062 0.027344l1.5898 2.1602 2.9922-0.27344c0.38672-0.027344 0.77734 0.09375 1.0703 0.35938 0.29297 0.26172 0.46094 0.63672 0.46094 1.0352v2.8008c-0.011718 0.15625-0.039062 0.3125-0.089843 0.46484zm14.074-155.7c-0.48828 0.24609-1.5234 0.58984-2.3281 0.83984v1.4102c0 0.41016-0.17969 0.80078-0.49219 1.0625l-1.7031 1.4453-1.6133 7.2422 0.035156 9.8438c0 0.47656-0.24219 0.92578-0.64844 1.1797l-2.4414 1.5586-3.0898 5.6719v1.3945c0 0.4375-0.20313 0.84375-0.54688 1.1133l-2.1953 1.6797v5.957c0 0.28516-0.089844 0.56641-0.25391 0.80469l-1.7148 2.4531c-0.13281 0.18359-0.30859 0.33984-0.50781 0.44141l-1.3789 0.69922 3.8086 2.0703c0.17969 0.10156 0.33594 0.23438 0.46094 0.40234l3.0859 4.1992 2.6094 4.3164 2.3906 1.2227c0.42578 0.21875 0.70703 0.63281 0.75781 1.1094l0.17188 1.7578 4.5312 0.85547c0.16406 0.027344 0.3125 0.089844 0.45312 0.17188 0 0 4.0469 2.4141 4.7266 2.7539 0.11328 0.023437 0.6875 0.023437 1.0352 0.023437 0.98047 0 1.832 0 2.4141 0.59375 0.09375 0.003907 0.91406 0.15625 1.4336 0.23438 0.32422-0.26953 0.88672-0.78906 1.3711-1.2891l3.6172-2.6094c0.49219-0.34766 1.1602-0.33984 1.6367 0.003906l1.9648 1.4297 1.9648-0.22266 1.0117-1.2891c0.23438-0.29688 0.57031-0.48047 0.94141-0.52734l2.75-0.30859 3.832-2.6055c0.16797-0.11719 0.35156-0.19141 0.55469-0.22266l3.6523-0.62109 5.5117-5.9531c0.76562-0.98047 2.7539-3.5117 3.1133-3.875 0.16797-0.17188 1.2539-1.3594 2.3086-2.5195h-1.9883c-0.09375 0-12.863-3.7734-13.699-4.625-0.33594-0.33984-3.0195-2.7344-3.0195-2.7344l-3.2461-4.0195c-0.30859-0.37891-0.39062-0.89453-0.22266-1.3594l0.20703-0.56641h-3.0117c-0.66016 0-1.2266-0.46094-1.3672-1.1016-0.085938-0.37891-0.68359-3.4336 0.99609-5.1641v-1.7852c0-0.77344 0.62891-1.3984 1.3984-1.3984h0.66016l2.2109-1.2539-0.98438-0.67188-1.7266-2.4414-1.0312-1.0547-5.1445-4.5547-1.7148-0.69922-1.0312-0.69922-1.7148-0.69922-2.4023-2.1016-2.0625-4.5547s-1.7148-4.1992-1.7148-4.5547c0-0.042969-0.11719-0.22266-0.18359-0.33594-1.9336 2.1953-2.2695 2.3867-2.4375 2.4766zm20.664 23.906v1.0977c0 0.48828-0.25391 0.93359-0.66797 1.1914-0.375 0.23047-0.5 0.93359-0.5 1.6055h2.8281l0.8125-1.8047 1.2109 0.54297-0.78906-0.67188-1.7148 0.35156-0.33984-0.69922 3.7734-2.4531-0.99219-1.1758-3.2969 1.8711c-0.10938 0.066406-0.21484 0.10938-0.32422 0.14453zm-149.81 41.535s2.0625 3.1523 1.7148 3.5c-0.09375 0.09375-0.21094 0.69922-0.33594 1.5117l1.4375 1.4688h3.5391l1.7578-0.89453c0.19531-0.10156 0.41406-0.15234 0.63672-0.15234h7.5469c0.29297 0 0.80469 0 1.9414 1.0547h2.8633c0.17969 0 1.5078 0.089844 2.832 0.17969 1.2383 0.085938 2.4141 0.125 2.6758 0.17188 0.33594 0 0.60938 0.011719 2.6992 1.3008v-1.3008l-0.56641-2.7773-3.0977-2.8438c-0.23438-0.21094-0.38672-0.49219-0.4375-0.80469l-0.29297-1.7695-1.8594-2.5312c-0.12891-0.17187-0.21094-0.37109-0.25391-0.58203l-0.6875-3.8516-0.63672-1.9102c-0.23437-0.72656 0.15234-1.5117 0.87891-1.7578 0.38672-0.13281 0.72656-0.23438 1.0195-0.30859 0.066406-0.15234 0.13281-0.32422 0.20703-0.49219 0.35156-0.83594 0.66797-1.5859 1.2656-1.9102 0.35938-0.4375 1.1719-1.6367 1.9023-2.793l-1.0586-2.9727c-0.71875-0.86328-2.0781-2.5312-2.4258-3.2422-0.19531-0.34766-1.4492-1.7266-2.4883-2.7891-0.46094-0.46875-0.53125-1.1914-0.17188-1.7461l1.3711-2.1016c0.28125-0.42188 0.71875-0.64844 1.2695-0.63281l2.7422 0.18359c-1.1523-2.4414-1.1523-2.7109-1.1523-2.9922v-1.7148c-0.13281 0.47656-0.51563 0.84375-0.99609 0.96875l-2.2344 0.57031-1.8945 2.7617-0.3125 3.4883c-0.042969 0.51953-0.37891 0.97266-0.86328 1.1719l-1.0352 0.42188-0.53125 2.4375c-0.054688 0.25781-0.18359 0.49219-0.36328 0.68359l-1.8633 1.8984c-1.3906 3.5156-1.7461 3.8789-1.9141 4.0547-0.023437 0.11719-0.41406 1.4727-0.66797 2.5039-0.042968 0.17969-0.125 0.34766-0.23438 0.49219l-2.0625 2.8008c-0.52734 0.71875-1.7305 0.71875-2.25 0l-1.0312-1.3984-1.2109-1.2227-0.46094 0.23438c-0.19531 0.10156-0.41406 0.15234-0.63672 0.15234h-1.4375l-4.0195 4.3945v1.9023c0 0.32422-0.11328 0.63672-0.32031 0.88672l-2.1953 2.6836 0.25781 0.10547 1.7148 2.4531zm104.65 97.883-2.6328-0.80469-3.3555-1.6914h-3.0977c-0.6875 0-1.2695-0.5-1.3828-1.1758l-0.15234-0.92578h-1.2148c-1.7539 0.46484-2.8008 0.72656-3.4258 0.86719-0.11719 0.61719-0.24609 1.6133-0.32422 2.418-0.054688 0.57031-0.45312 1.0469-1.0039 1.2109l-2.1602 0.62891-3.4102 2.5312-2.2852 2.9961c-0.30078 0.39062-0.78516 0.60938-1.3008 0.53906l-4.9766-0.66016c0.68359 1.1016 1.2539 2.0039 1.4102 2.1992 0.13281 0.13281 0.52734 0.53906 0.91406 2.5547l4.6602 3.168c0.37891 0.25781 0.60938 0.6875 0.60938 1.1523 0.29688-0.074218 0.65625-0.042968 0.98438 0.11719 0.98047 0.46875 0.86328 1.4453 0.73438 2.4688-0.035156 0.28516-0.09375 0.77344-0.10547 1.0547 0.32031 0.55469 0.51953 1.3398 0.63672 1.9727 0.73438 0.125 1.9531 0.26953 2.9805 0.35156 0.33594 0.027344 0.64844 0.17188 0.88672 0.41406l1.7656 1.7969 7.1055 1.5117c2.7734-2.6328 4.1445-3.8516 4.8672-4.3672 0.066406-0.24219 0.12891-0.56641 0.19531-0.88672 0.23438-1.0859 0.44922-2.0625 1.1016-2.4688 0.37109-0.55859 1.1328-2.0664 1.3984-2.7266-0.15625-0.54688-0.54687-1.5195-0.54687-1.5195-0.066407-0.16797-0.09375-0.33203-0.09375-0.50781v-2.4531c0-0.18359 0.039062-0.37109 0.11328-0.54297 0.39844-0.95703 0.875-2.1719 0.93359-2.4531v0.003906c-0.011718 0 0.027344-0.52734 0.64844-4.3398zm-76.438-125.72-4.3281-0.29688-0.3125 0.48047c0.89453 0.94531 1.9258 2.1055 2.2188 2.6992 0.17969 0.35156 1.2891 1.7656 2.2188 2.8672 0.10547 0.125 0.19141 0.27344 0.24609 0.42969l1.0039 2.8047 1.6016-0.18359 1.0625-0.81641c0.45312-0.35156 1.0859-0.38672 1.5781-0.085937l1.0469 0.64453 3.4141-1.7461c0.15234-0.078124 0.3125-0.125 0.47656-0.14453l2.6367-0.29688 1.6797-1.5195-0.35156-0.35938c-0.39062-0.40234-0.50781-1.0039-0.29297-1.5195 0.21875-0.51562 0.72656-0.85547 1.2891-0.85547h2.4023c1.625-0.38672 3.9688-0.97266 4.4141-1.1797 0.078125-0.14062 3.2773-2.9805 4.8281-4.3516v-1.4688c0-0.66797 0.46484-1.2383 1.1211-1.3711l4.4531-0.90625c-0.70703-0.40234-1.1797-0.71875-1.3984-0.93359-0.71094-0.72656-0.57812-1.707-0.46484-2.4961 0.027344-0.20703 0.0625-0.41016 0.0625-0.58203 0-0.20703-0.0625-0.59766-0.13281-0.99219l-1.6016-0.46484c-0.36328-0.10547-0.67188-0.35156-0.84375-0.69531-0.17188-0.33984-0.21094-0.72656-0.09375-1.0859l0.61719-1.8867v-2.9219c0-0.59766 0.37891-1.1328 0.94531-1.3281l0.75-0.25391-0.25781-0.78516c-0.10156-0.30859-0.089844-0.64453 0.027343-0.94531l0.6875-1.7539c0.050782-0.125 0.11719-0.24609 0.20313-0.35156l1.0742-1.3711v-1.9727c0-0.73438 0.56641-1.3438 1.3008-1.3984l3.5039-0.25391v-15.875l-33.992-17.672-2.8516 1.2656c0.050781 1.5078 0.14062 4.4062 0.16797 5.5117 0.21875 0.21875 0.57813 0.52734 0.76563 0.69531 0.24219 0.20703 0.44922 0.38672 0.55859 0.50391 0.71094 0.72656 0.57812 1.7695 0.46094 2.4414 0.33984 0.42188 1.0352 1.1758 1.6055 1.7578 0.46094 0.46484 0.53125 1.1914 0.17187 1.7461l-1.1758 1.7969-1.0039 13.648c-0.023437 0.28125-0.125 0.54297-0.29688 0.76172-2.8555 3.6133-7.4648 9.4375-8.7188 10.961 0.011719 0.51562 0.17188 1.6016 0.34766 2.5586l1.6953 1.7305 3.0117 2.3906c0.21875 0.16797 0.375 0.40234 0.46484 0.66016l1.3711 4.1992c0.042969 0.14062 0.066406 0.28516 0.066406 0.4375v4.1992c0.085938 0.10156 1.0703 2.2109 1.9141 3.9375 0.21875 0.44922 0.18359 0.98047-0.09375 1.3945-0.27344 0.39844-0.69922 0.67578-1.2539 0.59766zm-13.062 66.074c0.44922-0.32422 1.0352-0.34766 1.5117-0.066406l1.7422 1.0117 2.0664-1.0547c0.12891-0.066406 0.26172-0.11328 0.40234-0.13281l2.0625-0.35156c0.375-0.0625 0.75781 0.027344 1.0586 0.25391 0.30859 0.22266 0.50781 0.55859 0.55859 0.93359 0.039063 0.28516 0.089844 0.58203 0.14062 0.86328 0.42969-0.19141 0.98047-0.42969 1.5117-0.66797l0.81641-1.9414c0.054688-0.13281 0.13281-0.25781 0.23047-0.37109l2.0664-2.4062v-6.1328c0-0.34766 0.125-0.67578 0.35156-0.93359l3.4336-3.8516c1.6172-1.2109 3.3164-2.5547 4.0156-3.2031-0.28125-1.5-0.20313-3.8008 0.24219-4.8438l-0.011719-0.003906c0.22266-0.69922 0.53125-5.0234 0.54297-5.7227 0-0.48047 0.16406-0.82422 1.1914-2.75 0.37109-0.69922 0.75-1.3906 0.89062-1.7266 0.042969-0.30078 0.18359-0.94141 0.57031-2.4531-0.86719 0.11719-1.9258-0.125-2.8008-0.39844l-3.4453 0.25391-0.49219 2.7812c-0.027344 0.17188-0.09375 0.33594-0.18359 0.48047l-1.5234 2.4922 0.015625 2.3789c0 0.51562-0.28125 0.98438-0.73438 1.2305-0.20703 0.11328-0.4375 0.16797-0.66797 0.16797-0.26172 0-0.53125-0.078125-0.76172-0.22266-1.3906-0.90234-3.0781-1.9531-3.6445-2.2383-0.5-0.027344-1.5273-0.09375-2.5586-0.16406-1.2148-0.085938-2.4297-0.16797-2.6562-0.17188h-2.4648l-0.21094 0.54297 0.085938 0.78906 1.625-0.82812c0.54688-0.27344 1.2109-0.16797 1.6367 0.26172l2.4023 2.4531c0.44922 0.45312 0.53125 1.1484 0.20703 1.6914l-1.0312 1.7539-1.5117 1.5898c0.003906 0.29297 0.023437 0.57031 0.042969 0.80078 0.42969 0.17188 1.043 0.46094 1.9258 0.90625 0.51953 0.26953 0.82422 0.83594 0.75 1.418l-0.34766 2.8008c0.011719 3.1992-0.4375 3.6523-0.72656 3.9609-0.11328 0.20703-0.85156 1.9531-1.4102 3.3828-0.18359 0.46484-0.60547 0.80078-1.1016 0.875-0.48828 0.050782-0.99609-0.125-1.3047-0.51953l-0.60156-0.77734-0.65625 0.39844c-0.30078 0.18359-0.66016 0.25391-1.0078 0.17969l-1.7188-0.35156c-0.32031-0.066406-0.59766-0.23438-0.80469-0.48828l-0.25781-0.32031c-0.16406 0.18359-0.37109 0.32422-0.60547 0.41016-2.2773 0.77344-2.6719 0.77344-2.8555 0.77344h-0.46484c0.003906 0.042968 0.011718 0.089844 0.023437 0.11719 0.12891 0.26172 0.86719 1.1211 1.4453 1.707 0.32422 0.33203 0.46484 0.79688 0.375 1.25l-0.34766 1.7539c-0.078126 0.39844-0.32031 0.73828-0.67188 0.94141-0.35156 0.20312-0.77344 0.24219-1.1523 0.11719l-1.1641-0.39844-0.85156 0.98047 0.58203 0.71094 1.8945 3.1406zm-12.922-28.961c-0.375 0-0.73437-0.15234-1.0039-0.42188l-0.29688-0.30859c-0.14062 1.2812-0.24219 2.3008-0.24219 2.3008l-0.0625 0.52734h6.7305v-2.2617l-0.023437 0.011719c-0.19531 0.10156-0.41406 0.15234-0.63672 0.15234zm46.695 132.14 0.51562-1.2227-0.51562-1.2227zm2.5703 1.1289 0.19141 0.32422 3.1094-0.48828 2.5586-2.3242 1.5977-3.5781c0.16797-0.375 0.49219-0.66016 0.89062-0.77734l2.4023-0.69922c0.48828-0.13281 1.0312 0 1.3945 0.36328l1.6445 1.6797h4.9375c0.71094-0.85156 1.4375-1.7578 1.6875-2.1445 0.14453-0.62109 0.78516-1.2148 3.207-2.4688l1.3672-1.668 0.60547-1.8555c0.10156-0.30078 0.30078-0.56641 0.57031-0.73828l3.5508-2.3008 1.5586-2.2305c0.35156-0.50391 0.99609-0.72266 1.5977-0.51953 0.32422 0.11328 0.73828 0.20312 1.0117 0.23047 0.3125-0.39062 0.76172-0.79688 1.2227-1.1719l-0.57031-0.58203c-3.6055-0.32031-4.8828-0.61719-4.8828-2.0508-0.015625-0.29297-0.25781-1.3477-0.40234-1.6172-0.40234-0.39062-0.4375-1.0312-0.35938-1.8828-0.79687 0.035156-1.6367-0.54297-1.6367-1.3984v-1.0078l-4.5352-3.0859c-0.32031-0.21875-0.53125-0.55469-0.59375-0.92969-0.12891-0.78516-0.33984-1.6641-0.44922-1.8867-0.003907 0.050782-0.21094-0.14453-2.4688-3.8516l-1.5859 0.80469c-0.46094 0.23437-1.0039 0.20312-1.4219-0.089844l-0.17969-0.11719-2.2852 1.8086c-0.30078 0.23438-0.6875 0.33984-1.0703 0.29297-0.37891-0.054688-0.72266-0.26953-0.94141-0.58203l-1.1992-1.7148c-3.0703 0.55859-3.3711 0.55859-3.4883 0.55859-0.26953 0.027343-2.6758 0.42187-5.125 0.83594v15.625c0 0.77344-0.62891 1.3984-1.3984 1.3984h-3.0586v11.078l0.54297 0.24219c0.32422 0.14453 0.58203 0.41016 0.71875 0.73828l2.0625 4.8984c0.14453 0.34766 0.14453 0.73828 0 1.0859zm89.539-66.582 0.6875-5.2539 0.16797-1.3672-6.1719 3.4609c-0.21094 0.11719-0.44922 0.17969-0.6875 0.17969h-3.7812l-0.95312 1.2148c-0.21094 0.26953-0.50781 0.45312-0.84375 0.50781l-3.7734 0.69922c-0.26953 0.054688-0.54688 0.023438-0.80078-0.089843l-3.4141-1.4492-0.39844 0.26953c-0.23438 0.15625-0.50391 0.24219-0.78906 0.24219h-3.8516l-0.89062 2.2734 0.54297 4.168 0.71875 0.36328c0.20703 0.10547 0.37891 0.25781 0.51562 0.45312l4.1172 5.9531c0.19531 0.28125 0.28125 0.61719 0.24219 0.95703l-0.69141 5.9531c-0.066406 0.55859-0.46094 1.0234-1.0039 1.1797l-1.3945 0.40234v1.0547c0 0.18359-0.039063 0.37109-0.11328 0.54297l-1.0312 2.4531c-0.19531 0.46875-0.63281 0.79688-1.1406 0.85156-0.050781 0.003906-0.10156 0.003906-0.15234 0.003906-0.45312 0-0.88672-0.22266-1.1484-0.59375-0.54297-0.77344-1.25-1.6055-1.5781-1.8828-0.95312-0.16406-1.7422-1.1484-2.418-4.6016-0.050782-0.24609-0.027344-0.50391 0.054687-0.73828l1.2891-3.625v-1.0234l-2.2461 0.20703c-0.5 0.015625-0.96484-0.17188-1.2539-0.56641l-1.4375-1.9531-11.176 4.0938 0.33594 1.2031-0.042969 0.011718c0.015625 0.054688 0.066407 0.085938 0.078125 0.14063l0.15234 0.92578h2.2383c0.22266 0 0.44141 0.050781 0.63672 0.15234l3.4336 1.7539 3.2031 0.95703c0.49219 0.15234 0.86328 0.56641 0.96484 1.0703l0.6875 3.5c0.035157 0.16406 0.035157 0.33594 0.003907 0.5 0 0-0.62891 3.8242-0.67188 4.3789 0 0.19141 0 0.55469-1.0234 3.0312v1.9023c0.6875 1.7812 0.6875 2.1719 0.6875 2.3633 0 0.32422-1.0547 3.3984-2.3633 4.6875-0.085937 0.24609-0.15625 0.64453-0.24219 1.0352-0.26953 1.2227-0.50391 2.3008-1.3672 2.5977-0.62109 0.47656-2.6367 2.3242-4.4844 4.0703l0.82422 4.1992 1.5391 2.207c0.19531 0.28125 0.28125 0.61719 0.24609 0.95312l-0.99219 8.4727 0.50391 1.5469 1.7695 2.168 0.23438-0.60547v-2.1016l-1.0312-1.3984 1.0312-1.7539 2.0625-1.0547 6.5195-2.4531 2.7422-1.7539 1.0312-2.4531-0.33984-1.0547 1.0312-3.1523-0.33984-1.0547-0.33984-5.2539-0.6875-1.3984v-2.1016l-1.3711-2.4531 0.33984-2.1016 1.7148-0.69922 8.5781-8.0547 4.1172-3.1523 5.1445-1.7539 4.4648-3.1523 1.3711-1.7539 2.0625-2.4531 1.3711-3.8516-0.6875-2.4531zm-139.84-91.793c0.26172-0.29297 0.63672-0.45312 1.0352-0.45312h1.7266l1.0703-0.54688c0.54687-0.28125 1.2109-0.16797 1.6367 0.26953l2.082 2.1289 0.77344-1.0547c0.73438-2.918 1.1133-3.3086 1.3203-3.5234 0.11328-0.20703 0.85156-1.9531 1.4102-3.3828 0.066406-0.17188 0.17188-0.33594 0.30078-0.46484l1.7734-1.8125 0.59766-2.7617c0.10156-0.45312 0.41016-0.82422 0.83594-0.99609l0.92969-0.375 0.26953-3c0.023437-0.23438 0.10547-0.46484 0.24219-0.66797l2.4023-3.5c0.19141-0.28125 0.47656-0.47656 0.8125-0.56641l1.9258-0.49219c0.17969-0.73828 0.41406-1.7656 0.45312-2.0898-0.011718-0.039063-0.074218-0.26172-0.13281-0.46094-0.96484-0.33984-2.2695-1.1211-2.2695-2.2578v-2.2305l-1.1523-1.1758c-0.47656 0.078125-1.0938 0.16797-1.5078 0.21875-0.63672 0.44141-2.4883 2.0664-2.832 2.418-0.86328 0.87891-2.0273 0.56641-4.8984-1.3594l-3.9648-0.29297-3.375 2.1953c-0.23047 0.14453-0.49219 0.23047-0.76172 0.23047h-3.0898c-0.24609 0-0.49219-0.066406-0.70703-0.19141l-2.4023-1.3984-1.7422-0.75-4.2852 1.5586c-0.60938 0.22266-1.3203-0.011719-1.668-0.58203l-1.5-2.4414-2.7734-1.2812-0.76562 0.39063c-0.26953 0.13281-0.57031 0.19141-0.875 0.13281l-1.6016-0.27344-1.8125 0.92969-0.50391 1.5508c-0.066407 0.20703-0.17969 0.39062-0.33203 0.54297l-1.7422 1.7734-0.62109 4.1055-0.023437-0.003906c-0.003907 0.042969 0.011719 0.085938 0 0.12891l-0.20703 0.84375 0.73828 1.2617c0.12891 0.21875 0.19531 0.46484 0.19531 0.71094v2.4531c0 0.36328-0.14453 0.71875-0.40234 0.98047l-0.62891 0.63672v0.82812c0 0.36328-0.14453 0.71875-0.39844 0.98047l-3.7188 3.793v5.7578l0.54297 1.1094c0.15234 0.30859 0.18359 0.66016 0.089844 0.99219l-0.63281 2.2617v1.9023l4.6094-0.51953 5.1445 5.2539 1.3711 4.1992 3.7734 1.0547 4.1172-0.69922 3.0312-0.21875 2.9453-3.6055v-1.9492c0-0.35156 0.12891-0.6875 0.36328-0.94531zm6.9844 48.121c-0.52734-1.0703-0.21094-2.6055-0.10156-3.0469 0.15234-0.62891 0.71094-1.0625 1.3594-1.0625h1.7148c0.20703-0.039063 0.84375-0.25391 1.3398-0.41406l0.44922-1.1484c0.18359-0.46484 0.59375-0.79688 1.0859-0.875 0.5-0.0625 0.99219 0.11719 1.3008 0.5l1.3984 1.7148 0.6875 0.14062 1.2422-0.76172c0.54688-0.34766 1.2617-0.24609 1.7148 0.19531 0.46484-1.0742 0.73437-1.5742 0.90234-1.8242 0.085938-0.39062 0.15234-1.4609 0.15234-2.4297l0.23438-1.9805c-0.50781-0.24219-0.96875-0.44922-1.1367-0.49219h-0.027343c-1.4727 0-1.4727-2.2109-1.4727-3.8242 0-0.36328 0.14453-0.71875 0.39844-0.98047l2.0156-2.2891-0.95312-0.96875-2.5156 1.2812c-0.41016 0.20703-0.90234 0.20312-1.3008-0.015625-0.41016-0.21875-0.67578-0.62109-0.72656-1.082l-0.33984-3.1523c-0.023437-0.22266 0.003906-0.45312 0.089844-0.66016l0.33594-0.85547c-0.011719-0.003906-0.027344-0.027344-0.039063-0.035156h-5.8281v4.5547c0 0.77344-0.62891 1.3984-1.3984 1.3984h-8.4727l-0.28125 2.2734-1.3711 3.8516-1.7148 1.3984 1.7148 4.8984 5.1445 5.2539 2.7656 3.3867 1.1523-1.3281c0.32031-0.37109 0.80469-0.53125 1.2812-0.46484-0.33203-0.39844-0.63281-0.8125-0.80078-1.1562zm-49.734-49.66-0.36328-0.75c-0.12891-0.26172-0.17188-0.57031-0.11719-0.86328l0.58203-3.2578-0.67188-0.91797c-0.24219-0.33594-0.33203-0.76172-0.23047-1.1641l0.56641-2.3086-0.46484-0.94531c-0.11719-0.23437-0.16406-0.49219-0.13281-0.75l0.28125-2.8516-1.6016-1.6367c-0.38672-0.39062-0.50391-0.97266-0.30078-1.4883l0.28516-0.72266-0.75781 0.15625-9.1797 0.023437-0.27344 0.37109 0.26172 1.8867c0.015625 0.11719 0.015625 0.24219 0 0.36328l-0.30078 2.4414 0.55859 1.4219c0.10547 0.26953 0.125 0.56641 0.054688 0.83984l-0.26172 1.0859 0.61719 2.832c0.074218 0.33203 0.023437 0.67188-0.13281 0.96875l-1.5977 2.9219-0.30859 2.1992c-0.015625 0.14453-0.0625 0.29297-0.12891 0.42578l-0.85547 1.7461 0.28516 3.2031 0.46875 0.96875 0.86719 0.89063c0.28125 0.28516 0.42578 0.68359 0.39844 1.082l-0.20703 2.7734 1.7305 0.80078 4.4648-2.1016 8.2383-2.8008 0.59766-0.4375c-1.3164-1.793-2.3242-3.1484-2.5039-3.3594-0.64062-0.61719-0.60547-1.5781 0.13281-3.0469zm75.348 164.96c0.37109-0.09375 0.76563-0.039062 1.0859 0.16406l1.7148 1.0547c0.28125 0.17188 0.49219 0.44141 0.59766 0.75781l0.46094 1.3984 1.5 0.4375h3.2305l0.99219 0.23047 1.8633-1.6367c0.24609-0.21875 0.56641-0.33984 0.89453-0.34766l0.003906-28.355c0-0.77344 0.62891-1.3984 1.3984-1.3984h3.0586v-15.406c0-0.13281 0.09375-0.23047 0.12891-0.35156h-1.1328l-7.7461-1.0625c-0.35938-0.050781-0.68359-0.23438-0.90625-0.51953-0.35938-0.46094-0.78516-0.94531-1.0547-1.2148h-19.125c-0.26953 0-0.53906-0.078125-0.76172-0.23047-1.1641-0.75781-2.5547-1.625-3.293-2.043-0.40234 0.29688-1.0078 0.77344-1.5508 1.2383-0.375 0.3125-0.89453 0.41406-1.3594 0.25781l-1.3594-0.46484-1.5078 1.125 0.054687 1.6875 4.1172 5.9531 5.4883 10.5 2.7422 4.8984v5.6016l0.68359 3.5 1.3711 7.3516 2.4023 7 2.2461 2.6211 1.8555-0.24219 1.0312-1.8359c0.19141-0.32812 0.50781-0.56641 0.875-0.66797zm-91.496-157.3-0.6875-1.3984c-0.074219-0.15234-0.11719-0.32031-0.13281-0.48828l-0.34766-3.8516c-0.023438-0.25781 0.023438-0.51562 0.13281-0.74609l0.93359-1.8984 0.3125-2.2305c0.023438-0.16797 0.078125-0.33203 0.15625-0.47656l1.4688-2.6953-0.57812-2.6445c-0.042969-0.20703-0.042969-0.42578 0.003907-0.62891l0.23437-0.96875-0.375-0.95703-1.4688-1.0625-3.0703 1.1367c-0.15625 0.054687-0.32031 0.089843-0.48828 0.089843h-2.0625c-0.56641 0-1.0703-0.33984-1.2891-0.85547l-0.86719-2.0664-1.1133-0.75781-2.0625 0.78906c-0.36328 0.14453-0.77344 0.125-1.1328-0.054687-0.35156-0.17188-0.60938-0.49219-0.71875-0.875l-0.29297-1.0352-0.32422 0.44141c-0.10547 0.14453-0.24219 0.26953-0.39844 0.36328l-1.7148 1.0547c-0.50781 0.30859-1.1602 0.26172-1.6172-0.11328l-0.93359-0.76172-1.3477 0.85547-0.16797 1.2227 1.0078 1.2812c0.33203 0.42578 0.39063 0.99609 0.15625 1.4766l-0.33594 0.6875 0.93359 1.4336c0.33594 0.51562 0.29688 1.1797-0.09375 1.6562-0.39062 0.46875-1.043 0.63672-1.6133 0.40234l-0.13281-0.054687c0.015625 0.17969 0.003906 0.35938-0.042969 0.53906l-0.6875 2.4531c-0.125 0.44141-0.45312 0.79688-0.88672 0.94141l-0.24609 0.089843 0.46484 2.1445c0.078124 0.34766 0.015624 0.70703-0.16406 1.0078l-0.48828 0.82422 0.09375 0.09375c0.97266-0.11719 1.4219 0.09375 1.7148 0.32031 0.33984 0.26172 0.58984 0.76562 0.58984 1.1992 0.027344 0 0.29297 0.60938 0.54297 1.1367l1.3398 2.3867c0.24219 0.4375 0.23438 0.96484-0.015625 1.3945l-0.76562 1.3047 0.42188 2.3203 7.207-2.7539 7.5469-0.69922 4.1289 1.2031 0.089844-1.1992-0.58203-0.59766c-0.085938-0.12109-0.16797-0.24609-0.23438-0.37891zm-20.605 0.066406-0.98047-1.7539c-0.21094-0.42969-0.37109-0.78516-0.49219-1.0742-0.48047 0.125-0.99219-0.023437-1.3438-0.375l-1.3711-1.3984c-0.44141-0.45313-0.52734-1.1406-0.20703-1.6914l0.75-1.2773-0.23047-1.0547-1.1875 0.48047c-0.46875 0.19531-0.98438 0.11719-1.3828-0.18359l-1.3711-1.0547c-0.32031-0.24219-0.51562-0.60938-0.54688-1.0078l-0.29297-3.9023c-0.20312-0.14062-0.39844-0.26953-0.53906-0.35938-0.27344 0.078125-0.74609 0.23438-1.1758 0.37891v0.28125c0 0.28125-0.085937 0.55859-0.24609 0.79688l-2.4023 3.5c-0.11719 0.16797-0.26172 0.30859-0.44141 0.41406l-2.3086 1.3672 3.832 3.9023 5.1445 4.1992 6.1758 3.8516 0.20313 0.066407-0.375-2.0938c-0.0625-0.33203 0-0.67188 0.17187-0.95703zm266.01-31.316 0.6875-2.4531-1.7148-0.69922-1.7148 0.69922-0.6875 1.7539-2.4023 0.69922-3.0859 1.3984-2.0625-0.35156-2.4023 1.0547h-2.7422l-3.0859 2.1016-1.3711 0.35156-3.4336-0.35156s-1.7148 1.7539-2.0625 1.7539-3.0859 0.35156-3.0859 0.35156l-3.7734-3.1523-0.089844-0.074219-1.5859 3.8398 2.5859 3.2266c0.023437 0 2.6602 2.3516 3 2.6992 0.63672 0.24609 10.887 3.5781 11.934 3.8086l4.9102-0.023438c0.55469 0 1.0547 0.32422 1.2812 0.82812 0.23047 0.50391 0.12891 1.0977-0.24219 1.5117 0 0-4.1562 4.5859-4.5039 4.9375-0.37891 0.41016-2.9844 3.7305-2.9844 3.7344l-5.9062 6.3906c-0.21094 0.23047-0.48828 0.375-0.79688 0.42969l-3.8203 0.64844-3.8633 2.625c-0.19141 0.12891-0.40234 0.20703-0.62891 0.23438l-2.5078 0.28516-1.0117 1.2891-3.8203 4.8711v17.289l1.9492 2.8438 0.94141-1.5352 0.6875-1.7539 4.8047-5.2539 6.8672-7 4.125-2.4492 4.4648-4.1992 5.1445-7.3516 4.4648-7.3516 0.68359-3.1523 2.7422-5.2539v-1.7539l1.3711-1.7539 1.3711-3.5 1.0312-2.4531v-4.1992l1.0312-1.0547-0.33984-3.1523zm-5.1445 119.37s-1.7148-3.8516-2.0625-3.8516c-0.33984 0-2.0625 2.4531-2.0625 2.4531s0 3.1523-0.33984 3.5-2.4023 1.3984-2.4023 1.3984l-2.0625 1.7539s-1.3711 3.8516-1.7148 4.1992c-0.33984 0.34766-4.8047 2.8008-4.8047 2.8008l-9.9531 3.8516-1.0312 4.1992-1.3711 2.1016 0.33984 7.6992s1.0312 3.5 0.6875 3.8516c-0.33984 0.35156-2.4023 4.1992-2.7422 4.1992s-4.1172 5.6016-4.1172 5.6016l0.33984 5.6016 1.0312 2.4531s-1.0312 2.4531-1.0312 2.8008c0 0.35156 2.0625 4.5547 2.0625 4.5547l4.4648 2.4531 4.1172-2.4531 3.0859-0.69922 1.7148-2.1016s12.695-27.652 12.695-28.004c0-0.35156 1.7148-4.8984 1.7148-4.8984v-2.4531s1.7148-3.5 1.7148-3.8516v-4.5547l1.3711 1.7539v1.7539l2.7422-3.5s-1.3711-5.2539-1.3711-5.6016c0.015626-0.35938-1.0156-7.0117-1.0156-7.0117zm-98.996 75.285-1.9258 0.65625-1.8086 2.1523c-0.14062 0.16797-0.3125 0.29687-0.50781 0.37891l-1.1641 0.50781c0.41406 1.0469 0.97266 2.4375 1.1719 2.8398 0.003906-0.003906 0.015625-0.003906 0.035156-0.003906 0.039063 0 0.11719 0.015625 0.22266 0.039062l0.60547-1.6445c0.17188-0.48047 0.59766-0.82812 1.1094-0.90234 0.88672-0.12891 1.9727-0.23438 2.8672-0.13281 0.22266-0.47656 0.48047-1.1758 0.63281-1.5742 0.11328-0.29688 0.20703-0.54297 0.29297-0.75-0.35547-0.41016-0.94531-1.0039-1.5312-1.5664zm-155.08-276.1c0.11328-0.36328 0.36328-0.67188 0.69922-0.83984l6.8672-3.5c0.32031-0.16406 0.68359-0.19531 1.0312-0.10156l1.5977 0.46484 0.78516-0.80078c0.17969-0.18359 0.41016-0.3125 0.65625-0.375l3.7422-0.95313 1.4375-1.4727c0.16406-0.16406 0.35938-0.28516 0.57812-0.35156l4.4297-1.4102c-0.20703-2.7656-0.023438-3.3945 0.84375-3.7969 0.38672-0.18359 0.86328-0.16406 1.2539 0.035157 0.33203 0.027343 1.0859 0.011719 1.9102-0.0625l0.33984-0.69922c0.23438-0.48047 0.72266-0.78516 1.2617-0.78516h4.3047l0.33984-0.28125c-1.7188-2.6445-1.8945-3.6055-1.3906-4.3125 0.21875-0.74609 0.69922-3.5664 1.0938-6.1484l-1.9336-2.0664-4.9883-1.0195s-3.0898 0-3.4336-0.35156c-0.33984-0.35156-2.4023-2.8008-2.4023-2.8008l-2.0625 1.0547-2.0625 3.5-3.0898 3.5-7.8906 3.1523-2.4023 2.8008-0.33984 2.1016-2.0625 2.1016-1.3711 3.8516 0.33984 1.7539-1.7148 3.1523-3.0859 3.1523-2.0625 0.69922-3.7734 2.8008-3.293 0.51562 14.797 0.98438zm171.79 268.39 0.92578 1.125-2.0234 4.8086-2.0625 2.1016-2.4023 1.3984-1.3711 2.4531-3.0859 4.1992-3.4297 3.1562-4.8047 4.1992-5.1445 3.8516-4.4648 2.1016-2.4023-0.35156-2.7422 1.0547-1.0312 0.69922h-1.3711l-3.7734-0.69922-2.4023 0.35156h-2.7422l-2.0625 1.0547-3.0859 0.35156h-2.0625l-2.0625 1.3984-1.3711 0.35156-2.0625-1.7539-1.7148-1.3984-0.33984-1.3984-1.3711-0.69922-1.7148-3.1523s1.0312-1.3984 1.0312-1.7539v-3.5s-3.0898-4.8984-3.0898-5.2539c0-0.35156-3.4336-7.3516-3.4336-7.3516l-0.375-0.44141 0.72656-0.09375c0.4375-0.054688 0.82422-0.32031 1.043-0.70703l0.66016-1.1797 0.55859 1.6367c0.14453 0.44141 0.49219 0.77734 0.94141 0.91406l2.4023 0.69922c0.125 0.035157 0.25781 0.054688 0.39062 0.054688l3.0859-0.042969 1.3711 0.35156c0.11719 0.027344 0.23438 0.042969 0.34766 0.042969 0.33594 0 0.66797-0.11719 0.92578-0.34766l2.0039-1.7539h0.84375c0.77344 0 1.3984-0.62891 1.3984-1.3984v-7.3398l0.82422 1.3984c0.25391 0.42969 0.71875 0.6875 1.2031 0.6875 0.074219 0 0.14453-0.003906 0.21875-0.015625l4.457-0.69922c0.26953-0.042969 0.51953-0.16406 0.72266-0.34766l3.0898-2.8008c0.14453-0.12891 0.25781-0.29297 0.33984-0.46484l1.4492-3.2578 0.97266-0.28516 1.4727 1.5c0.26172 0.26953 0.62109 0.42188 1.0039 0.42188h6.1758c0.41016 0 0.79688-0.17969 1.0625-0.48828 1.6289-1.8984 2.2891-2.8047 2.5586-3.332 0.375-0.26172 1.293-0.79688 2.1602-1.2383 0.17188-0.089843 0.32422-0.21094 0.44922-0.35937l1.7148-2.1016c0.11328-0.13281 0.19141-0.28516 0.24609-0.45312l0.53125-1.6289 3.3672-2.1797c0.15234-0.10156 0.28125-0.22266 0.37891-0.37109l1.1523-1.6445c1.1602 0.23047 2.4922 0.19531 3.0508-0.94531 0.14453-0.21875 0.78516-0.76172 1.4766-1.2695l6.7305 1.4336 0.85156 4.3438c0.035157 0.19141 0.11719 0.37109 0.23047 0.53125l1.4102 2.0156-0.62109 5.7344-0.015624 0.14062-0.51563-0.375c-0.55469-0.41016-1.332-0.34766-1.8242 0.15234l-2.0625 2.1016c-0.13281 0.14063-0.24609 0.30859-0.3125 0.5l-1.0312 2.8008c-0.17188 0.46875-0.078125 0.99609 0.24219 1.3828l2.0625 2.4531c0.17969 0.21094 0.41406 0.36328 0.68359 0.44922 0.77734 0.23047 2.6758 0.75781 3.4766 0.75781 0.87109-0.023437 1.5195-0.48437 1.9609-2.2852zm-12.625 10.25c0.26953-0.26953 0.44141-0.72266 0.42969-1.1016-0.011718-0.46484-0.035156-1.1719-3.2305-4.0664-0.375-0.34766-0.90625-0.45313-1.3945-0.29297l-3.0859 1.0547c-0.24219 0.085938-0.46094 0.23047-0.62109 0.42578l-1.8477 2.1992-2.1016 0.91797c-0.6875 0.30078-1.0195 1.0938-0.74609 1.793 0 0 1.4102 3.5898 1.7656 4.3047 0.54297 1.1094 2.1602 1.6016 3.4219 1.8125 0.078125 0.011719 0.15625 0.015625 0.23438 0.015625 0.58203 0 1.1094-0.35938 1.3086-0.91797l0.73437-1.9922c0.67578-0.054688 1.2891-0.074219 1.4336-0.042969 0.35938 0.18359 0.94531 0.20703 1.3164 0.0625 0.96484-0.37109 1.4453-1.5391 2.1523-3.4141 0.15234-0.40625 0.28125-0.75781 0.23047-0.75781zm8.7617-15.59-1.0039 1.0234-0.64453 1.7539 1.2617 1.5c0.52734 0.14453 1.0859 0.29297 1.5352 0.39062 0.14062-0.62109 0.27344-1.5781 0.36328-2.5156l-0.45312-1.3906zm16.32-227.99h-1.6016l-1.6523 2.8125c-0.25391 0.4375-0.71875 0.6875-1.2031 0.6875-0.11719 0-0.23438-0.011719-0.34766-0.042969l-2.7422-0.69922-33.969 0.042968 0.37109 7.6367c0.035156 0.69922-0.45312 1.3164-1.1406 1.4453l-2.6328 0.48828v18.789c0 0.73437-0.56641 1.3438-1.3008 1.3984l-3.5039 0.25391v1.1523c0 0.3125-0.10547 0.61719-0.29688 0.86328l-1.25 1.5898-0.42969 1.0859 0.53125 1.625c0.23437 0.72656-0.15625 1.5117-0.87891 1.7578l-1.1094 0.375v2.1445c0 0.14453-0.023437 0.29688-0.066406 0.4375l-0.23438 0.72266 1.0117 0.29687c0.48047 0.14063 0.85156 0.52734 0.96875 1.0117 0.066406 0.25781 0.37891 1.6055 0.37891 2.4375 0 0.29297-0.039062 0.63281-0.089844 0.96875-0.011718 0.09375-0.027344 0.21094-0.039062 0.32031 0.40234 0.23438 1.1602 0.64844 1.7695 0.96484 0.33984 0.17187 0.59766 0.48047 0.70703 0.85547 0.10547 0.37109 0.054688 0.76562-0.14062 1.1016l-0.56641 0.96484 3.2422 4.5078c0.23047 0.32422 0.3125 0.72656 0.23047 1.1133l-0.6875 3.1523 0.003907 0.40234h2.3984c0.46484 0 0.89453 0.23047 1.1602 0.60938 0.25781 0.37891 0.3125 0.86719 0.14453 1.3008l-0.003906 0.015625 1.9219 0.17969c0.41016 0.039063 0.78516 0.25391 1.0195 0.58984l1.7148 2.4531c0.16797 0.23438 0.25391 0.51562 0.25391 0.80469v1.0625l2.4414 0.74609c0.34766 0.10547 0.63281 0.33984 0.8125 0.65625l1.3711 2.4531c0.11719 0.20703 0.17969 0.44141 0.17969 0.68359v1.3906l2.75 0.76562c0.46484 0.12891 0.82812 0.48828 0.96875 0.95312l0.92578 3.1289 2.8555 2.6484 1.9336-0.73828c0.32422-0.125 0.67578-0.125 1.0039 0l2.0625 0.78906 1.457-0.98438c0.62109-0.41406 1.4727-0.28125 1.9141 0.33203l1.8242 2.4805 1.3477 0.55469c0.29688 0.11719 0.54297 0.33594 0.69922 0.61719l0.23047 0.41406c0.27344-0.28125 0.62109-0.47656 1.0469-0.42969l4.457 0.32422 2.0898-0.91406c0.17969-0.078124 0.36328-0.11719 0.55859-0.11719h2.5312l4.0586-3.8203c0.27344-0.25781 0.64453-0.42187 1.0312-0.375l5.5156 0.26953-0.039063-0.42188-2.0664-1.0547c-0.23438-0.11719-0.42578-0.30078-0.55859-0.52734l-2.7422-4.5547-2.832-3.8398-4.8711-2.6484c-0.44922-0.24609-0.72656-0.71875-0.72656-1.2305v-1.0547c0-0.52734 0.29688-1.0078 0.76172-1.25l2.4375-1.2422 1.2617-1.8047v-6.2109c0-0.4375 0.20312-0.84375 0.54688-1.1133l2.1953-1.6797v-1.0586c0-0.23438 0.054688-0.46484 0.16797-0.67188l3.4336-6.3008c0.11719-0.20703 0.28125-0.37891 0.47656-0.50781l2.1016-1.3398v-9.3789l1.7461-8.0078c0.066406-0.29688 0.23047-0.56641 0.46094-0.76172l1.5664-1.332v-1.8047c0-0.62109 0.41016-1.1719 1.0078-1.3438 1.0938-0.32031 2.4922-0.77344 2.8438-0.95312 0.19531-0.16797 0.99219-1.0742 2.082-2.3398-0.32422-0.4375-0.58984-0.78906-0.58984-0.78906l-1.3711-0.35156-2.0625-1.7539-1.3711-0.35156-1.0312-4.5547-0.6875-5.2539-1.3711-3.1523-0.6875-1.0547v-1.3984l-3.1484-2.5703-3.9492 3.7578c-0.28906 0.25781-0.63281 0.39844-0.99219 0.39844zm-14.945 115.32c-0.003906-0.18359-0.003906-0.36328-0.003906-0.53906 0-0.29688 0-0.75-0.015626-1.0117-0.29687-0.35938-0.75781-0.94531-1.1484-1.457-0.24609 0.078125-0.4375 0.10547-0.55469 0.10547-0.066407 0.035156-0.50781-0.074219-0.75-0.19531-0.09375 0.015625-0.22266 0.042969-0.3125 0.074219-0.94141 0.5-2.3359 1.2617-2.6055 1.4688h0.003906c0.089844 0-0.11719 0.87891-0.24219 1.6367-0.023438 0.13281-0.0625 0.26172-0.125 0.38672l-0.37891 0.77734c0.003907 0.011719 0.011719 0.015625 0.015625 0.027344l1.0938 0.79688c0.47656-0.65625 1.3008-1.9258 1.3047-1.9336 0.32031-0.48047 0.88672-0.72266 1.457-0.60547l2.2578 0.46484c-0.003907 0.003907-0.003907 0.003907 0.003906 0.003907zm-4.6719 9.6602h0.15625l2.6758-2.7266c0.4375-0.56641 0.95312-1.2539 1.3711-1.832-0.28516-0.13281-0.62109-0.30078-1.0078-0.5-0.55469-0.28516-0.85547-0.90234-0.73438-1.5195l0.050782-0.24609c-0.42969 0.63281-0.87891 1.2656-1.1094 1.5-0.41406 0.42578-0.95312 0.55469-1.4688 0.56641 0.10547 1.2773 0.039063 2.7734-0.25391 3.6797 0.027344 0.20703 0.16406 0.62109 0.32031 1.0781zm-80.473 59.582 1.3086 0.44922c1.9141-1.5742 2.2969-1.5742 2.6953-1.5742 0.41406 0 0.73828 0 4.5312 2.4531h19.145c0.53906 0 1.0703 0.14453 2.457 1.8438l7 0.97266 4.2656-0.011718c0.29297-0.042969 3.1289-0.60938 6.1055-1.2109l-3.7109-4.1562c-0.23047-0.25781-0.35156-0.58984-0.35156-0.93359v-15.398c0-0.77344 0.62891-1.3984 1.3984-1.3984h7.3086l0.55859-1.332v-4.8789c-0.92578-0.18359-2.1289-0.42188-2.4531-0.44922-0.39062 0.050781-3.4219 0.67578-3.4219 0.67578-0.39844 0.089844-0.83594-0.015625-1.1641-0.28516-0.32422-0.26172-0.51563-0.66797-0.51563-1.0859v-1.7539l-0.59766-2.9336c-1.8047-2.5938-1.8047-2.9844-1.8047-3.3672 0-0.042969 0.11328-3.8398 0.71875-5.5547-0.09375-0.26172-0.3125-0.72266-0.52734-1.0859-0.19531-0.32422-0.24609-0.71875-0.14062-1.0859l0.21875-0.77734-4.0977-0.24609c-0.73828-0.042969-1.3164-0.65625-1.3164-1.3984v-0.50781l-2.6875 0.34766v1.2148c0 0.21094-0.050782 0.42578-0.14063 0.61719l-1.0312 2.1016c-0.21094 0.42578-0.62891 0.71875-1.0977 0.77344l-3.0859 0.35156-4.043 0.6875c-0.56641 0.10156-1.1211-0.15625-1.418-0.63281l-3.0859-4.8984-1.5195-4.5117-0.48047-0.78906h-16.379l-1.9648 1.0039 0.085937 0.22266 2.0625 3.1523 2.0625 6.3008-1.0312 2.8008 1.3711 4.8984s1.7148 3.8516 1.7148 4.1992c0 0.34766-1.0312 5.2539-1.0312 5.6016 0 0.34766-1.3711 2.1016-1.7148 2.1016-0.33984 0-3.7734 5.6016-3.7734 5.6016l-1.0312 6.6523-1.3711 2.8008 0.17188 5.0586 0.53125-0.39844c0.35547-0.30078 0.82812-0.37891 1.2773-0.22656zm-56.156-230.86c-0.21094 0.42969-0.62891 0.72266-1.0977 0.77734-0.98047 0.11328-1.7344 0.16406-2.3242 0.16797 0.027343 0.55859 0.074218 1.2266 0.125 1.8125 0.054687 0.65625-0.34766 1.2617-0.96875 1.4609l-5.1562 1.6406-1.4727 1.5078c-0.17969 0.18359-0.41016 0.3125-0.65625 0.375l-3.7422 0.95312-1.0977 1.1211c-0.35938 0.37109-0.89453 0.5-1.3945 0.36328l-1.8633-0.54688-5.8359 2.9805-1.1406 3.7812v1.5977l36.566 31.086c0.3125 0.26172 0.49219 0.65625 0.49219 1.0625v0.89062l0.60938 0.3125c0.13281 0.066406 0.25781 0.15625 0.35938 0.26172l1.3047 1.332h1.125c0.44922 0 0.86328 0.21094 1.125 0.57031l0.66797 0.90234 2.8125 0.28516c0.71094 0.074219 1.2617 0.67188 1.2617 1.3945v2.1016c0 0.29688-0.09375 0.58984-0.27344 0.82813l-0.039063 0.050781 9.543-1.8242c3.1094-3.1602 4.9727-4.9102 5.543-5.2031 0.64453-0.34766 12.434-7.5039 20.828-12.617l-0.58203-1.3398-3.3711-0.57031-2.5586-0.73438c-0.50391-0.14453-0.88672-0.56641-0.98047-1.0742l-0.64844-3.3203-1.9805-4.0273c-0.30859-0.62891-0.10547-1.3828 0.46875-1.7695l1.2617-0.85547c-0.5-2.1016-0.5-2.4023-0.5-2.5352 0-0.15234 0-0.5 0.71875-3.8008l-0.027344-3.0195-1.3281-5.0781c-0.078125-0.28516-0.054688-0.58984 0.050781-0.86719l0.57031-1.4492-0.59766-7.9414-1.6289-0.71094c-0.36328-0.15625-0.64453-0.46484-0.77344-0.84375l-0.55859-1.7148c-0.70703-0.57031-1.4844-1.1094-1.7461-1.1914-0.47656-0.023438-1.0469-0.37891-1.332-1.0586-0.44922-1.0586-0.3125-4.2734 0.53906-5.1445 0.25781-0.26172 1.7461-1.9883 2.3867-2.7383l0.64844-7.9453 0.44141-2.0273-2.6562-0.83594-2.0586 0.67578-2.0625-0.69922-3.7734 2.1016s-2.7422-1.3984-3.0898-1.3984-6.1758 0.35156-6.1758 0.35156l-8.2383 0.69922-4.1172 2.4531-3.7734 0.35156-2.6992 1.8359 1.1523 1.2305c0.29297 0.3125 0.42578 0.73828 0.36328 1.1602-0.66797 4.5312-1.0469 6.4297-1.3203 7.2969 0.26953 0.57031 1.0195 1.8047 1.7734 2.9062 0.41406 0.59766 0.29688 1.418-0.26953 1.875l-1.7188 1.3984c-0.25391 0.20312-0.56641 0.3125-0.88672 0.3125h-3.9297zm109.74 235.55-1.418 0.125c-0.32031 0.066406-0.54297 0.11328-0.83984 0.17188l0.67187 0.96484zm-8.0195-39.312c0.24219 0.44141 0.89453 1.4375 1.4492 2.2305 0.11328 0.16406 0.19141 0.33984 0.23047 0.53125l0.69531 3.8203c2.0273-0.39844 2.2773-0.39844 2.3984-0.39844 0.11719 0 0.44141 0.015624 2.375 0.39062v-0.042968c0-0.57031 0.34766-1.082 0.86719-1.293 0.51953-0.23047 1.125-0.089844 1.5273 0.32031l1.7148 1.7539c0.17188 0.17969 0.29688 0.40234 0.35938 0.64453l0.035156 0.13281 2.832-0.48047c0.37109-0.054688 0.74609 0.027343 1.0547 0.24219 0.30078 0.21875 0.50391 0.54688 0.56641 0.91797 0.0625 0.36328 0.14453 0.77734 0.23047 1.082 0.59375 0.14062 1.6133 0.39844 3.3828 0.89062h1.5273l0.95313-1.2148c0.32031-0.40234 0.82422-0.60938 1.3438-0.51563 0.50781 0.089844 0.92969 0.45313 1.0859 0.94141 0.27344 0.83594 0.66797 1.7656 0.92578 2.2109 0.53125 0.039063 1.2891 0.11328 1.9531 0.17969-0.46484-0.64453-0.46484-1.0312-0.46484-1.2539 0-0.72656 0.35156-4.0039 0.35156-4.0039 0.011719-0.125 0.042969-0.24219 0.089844-0.35938l0.6875-1.7539 0.53906-3.4648-0.83594-1.707c-0.25781-0.53125-0.15625-1.1719 0.25781-1.5977l1.8594-1.8984 0.58203-1.4844c0.20312-0.50391 0.67187-0.84375 1.2109-0.88672l5.1445-0.35156 0.87891-0.26953-0.10156-0.51562-1.5352-3.6797-2.5586-2.6094c-0.15234-0.15234-0.26172-0.33984-0.33203-0.54297l-0.6875-2.1016c-0.14062-0.42969-0.0625-0.90234 0.20703-1.2656l0.61719-0.83984-0.83594-2.832c-0.039062-0.12891-0.054688-0.26172-0.054688-0.39844v-1.8164c-0.95703-2.3633-0.85547-3.2578-0.51562-3.7812 0.11719-0.65625 0.11719-2.5039 0-3.1523-0.33594-0.46484-0.80469-1.3164-1.3984-2.5312-0.19141-0.39063-0.19141-0.84375 0-1.2305l0.59375-1.2148c0.41016-2.3594 0.84375-2.8008 1.0352-2.9961 0.089844-0.089843 0.35156-0.3125 1.2539-0.83594 0.027344-0.75781 0.0625-1.8125 0.0625-2.0312 0-0.16406 0-0.49219 1.0586-5.5391 0.035156-0.16797 0.10547-0.33594 0.19531-0.47656l0.46094-0.69922v-1.6875c0-0.37891 0.15625-0.75 0.4375-1.0117 2.7812-2.6445 4.2344-3.9648 5.0742-4.625l-1.1328-0.37891c-0.63672-0.21875-1.0312-0.85547-0.93359-1.5195l0.34766-2.4531c0.023437-0.16797 0.078125-0.33203 0.15625-0.47656l0.35156-0.64453-0.78906-1.4297-1.2617-0.51563c-0.24219-0.10156-0.44922-0.25781-0.59766-0.46484l-1.2617-1.7148-0.94141 0.63672c-0.37891 0.26172-0.85547 0.32422-1.2891 0.15234l-2.2461-0.85547-2.2461 0.85547c-0.5 0.19531-1.0625 0.085937-1.4492-0.28125l-3.3281-3.0859-3.8516 0.30078c-0.23438 0.023438-0.46875-0.023437-0.6875-0.11719l-2.4102-1.1094-1.082 0.66797-2.1523 1.1016c-0.37891 0.19141-0.81641 0.20312-1.1992 0.035156l-1.6914-0.73828-3.4766 2.3633c-0.375 0.26172-0.85547 0.32031-1.2891 0.15234l-1.832-0.69922-2.1016 2.4141c-0.26562 0.30469-0.65234 0.47656-1.0586 0.47656-0.0625 0-0.125-0.003906-0.19141-0.011718l-5.1445-0.69922-3.8398-0.71094c-0.66797-0.125-1.1484-0.69922-1.1484-1.3789v-0.57031c-1.1367-0.60937-2.3359-1.2109-2.9297-1.4492-0.54297 0.38672-1.5977 1.3477-2.5039 2.2461v3.6172c0 0.125-0.015626 0.24219-0.042969 0.35938-0.4375 1.6406-0.94141 3.625-0.98438 3.9648 0.003906 0.37109-0.15625 0.71094-1.1875 2.6367-0.35156 0.66797-0.71875 1.3281-0.86719 1.6758-0.027344 1.0352-0.19531 5.168-0.83594 6.6406l0.003906 0.003906c-0.14453 0.51953-0.15234 2.6875-0.015625 3.3281 0.12891 0.25391 0.19531 0.54688 0.17188 0.81641-0.050781 0.59375-0.10156 1.2031-5.0469 4.8086l-2.8555 3.2461v6.125c0 0.33594-0.11719 0.66016-0.33594 0.91406l-2.2617 2.6328-0.94141 2.2461c-0.13281 0.32422-0.39062 0.58984-0.71094 0.73438-3.3672 1.5234-3.707 1.5234-4.0078 1.5234-1.0938 0-1.5508-0.90234-1.8359-2.2344l-0.46484 0.078125-2.5547 1.3008c-0.42969 0.21094-0.93359 0.20312-1.3438-0.039062l-1.625-0.94531-4.0938 2.8906 0.40234 1.8477 1.9531-0.99609c0.19531-0.10156 0.41406-0.15234 0.63672-0.15234h17.5c0.49219 0 0.95312 0.26172 1.2031 0.6875l1.0312 1.7539 1.5 4.4727 2.4375 3.7969 5.6055-0.81641 0.54688-1.1211v-2.1211c0-0.70703 0.52734-1.3008 1.2227-1.3906l5.4883-0.69922c0.41406-0.050781 0.80078 0.074219 1.1016 0.33984 0.30078 0.26172 0.47656 0.64844 0.47656 1.0547v0.78516l4.5195 0.26953c0.42188 0.023437 0.8125 0.24219 1.0547 0.58203 0.24219 0.33984 0.32422 0.78516 0.20703 1.1875l-0.53125 1.8945c0.71875 1.3594 0.83984 2.3125 0.39062 2.9961-0.1875 0.74219-0.42578 3.3828-0.48438 4.3086zm58.621-55.176c-0.0625-0.074218-0.66797-1.8555-1.2148-3.4062l-1.5625-1.9102c-0.26172-0.32422-0.37109-0.74609-0.28516-1.1523l0.17188-0.89453-1.0195-0.77344-1.2812 1.2031c-0.25781 0.24219-0.60547 0.37891-0.95703 0.37891h-2.793l-2.1328 0.93359c-0.21094 0.089843-0.44922 0.125-0.66016 0.11719l-3.9023-0.28516-1.1641 2.1328-0.14453 1.0547 0.96484 0.32422c0.46875 0.16406 0.82422 0.56641 0.92578 1.0547 0.37891 1.9414 0.089844 2.4961-0.21875 2.8711-0.14453 0.17188-0.35156 0.32422-0.57812 0.42188-0.53906 0.38672-2.7227 2.3789-4.6719 4.2266v1.5c0 0.27344-0.078125 0.53906-0.23047 0.76562l-0.54297 0.82813c-0.44922 2.1328-0.91406 4.4531-0.94531 4.8008 0 0.066406-0.003906 0.29297-0.011719 0.58203 0.44141-0.10547 0.92578-0.17969 1.4297-0.066406 0.28125-0.21875 0.67188-0.56641 0.99219-0.89453 0.26172-0.26953 0.62109-0.42187 0.99609-0.42187h13.699v-4.5547c0-0.30078 0.10156-0.59375 0.28125-0.83984l4.3047-5.7383c0.13672-0.54688 0.49609-1.8672 0.55078-2.2578zm-107.75-137.96 0.64453 1.7539c0.15625 0.42578 0.09375 0.90234-0.16406 1.2695l-2.4023 3.5c-0.25781 0.37891-0.69531 0.60938-1.1523 0.60938h-0.62109l-0.30859 0.78906 1.2539 4.8047c0.027344 0.11719 0.042969 0.23437 0.042969 0.35156v3.5c-0.035156 0.30078-0.63672 3.0391-0.6875 3.5781 0.054688 0.35938 0.64844 2.7344 0.64844 2.7383 0.14062 0.57031-0.089844 1.1641-0.57031 1.4883l-1.0547 0.71875 1.5234 3.1094c0.050782 0.11328 0.09375 0.23047 0.11719 0.34766l0.52734 2.6641 1.5859 0.46094 3.9648 0.66797c0.46484 0.078124 0.85547 0.38672 1.0469 0.81641l1.1094 2.543 5.543 1.5664c0.18359 0.050781 0.35156 0.14062 0.50391 0.26172l2.7656 2.2578 7.1055-3.1523c0.39062-0.16797 0.83594-0.16406 1.2148 0.039063l33.414 17.375c0.13281-0.51562 0.48047-0.95312 1.0312-1.0586l2.5703-0.47656-2-41.137-0.67578-5.1367c-0.023437-0.18359-0.011719-0.375 0.039063-0.55859l0.57031-2.0586-0.58203-2.0781c-0.085938-0.29297-0.066407-0.60547 0.042969-0.89062l0.98047-2.5039-0.53906-0.65625h-3.4336l-1.3711-0.69922-2.0625-0.35156-0.6875-1.7539s-3.4336-1.3984-3.7734-1.3984c-0.33984 0-5.4883 1.3984-5.4883 1.3984l-3.0898 3.1523v2.4531l1.0312 2.4531-2.4023 2.4531-2.7422 0.35156-3.7734-2.4531-4.4648-1.7539s-3.7734-0.69922-4.1172-0.69922c-0.33984 0-1.7148-1.7539-1.7148-1.7539l-0.33984-2.4531-4.8047-2.1016s-4.4648-0.35156-4.8047-0.35156c-0.17188 0-1.6758-0.45312-3.1094-0.89453l-0.49219 2.4023c-0.074219 0.33984-0.26953 0.64453-0.54688 0.85156l-2.4023 1.7539zm59.781 6.1875 0.64844 4.9688 1.5586 32.031h34.457l2.0664 0.5 1.5352-2.6055c0.25391-0.42578 0.71094-0.6875 1.2031-0.6875h1.8438l3.2695-3.1133-0.82422-1.2617-0.33984-2.4531 0.33984-1.0547-2.4023-2.1016s-2.7422-4.8984-2.7422-5.2539c0-0.35156-3.0898-4.5547-3.0898-4.5547l-0.33984-1.0547-2.0625-3.1523v-1.3984s-3.7734-3.5-3.7734-3.8516c0-0.35156-0.6875-2.4531-0.6875-2.4531l-1.0312-1.3984 1.0312-1.3984 0.6875 2.4531 2.0625 2.1016 0.33984 2.1016 4.1172 3.1523 0.6875-1.3984v-1.7539l1.0312-4.5547v-2.1016l-3.4336-5.9531h-2.4023l-4.8047 0.35156-2.7422-1.0547-3.4336-1.0547-2.4023 1.0547-4.8047 2.8008-3.0859-0.69922-5.8359-1.3984-4.4648-0.69922-1.418 0.17969-0.71094 1.8203 0.55859 2c0.066407 0.24609 0.066407 0.50781 0 0.75781zm-70.086-15.254c0.56641 0.25781 1.3984 0.77734 2.6484 1.8359 0.19531 0.16797 0.33984 0.38672 0.42578 0.63281l0.48828 1.5078 1.8242 0.80078c0.47656 0.20703 0.79688 0.66016 0.83594 1.1758l0.53125 7.0742 1.3086-1.9141-0.77734-2.1211c-0.22266-0.60938 0.003907-1.3008 0.55469-1.6523l5.6797-3.8398 0.44141-2.1523c-0.003906 0-0.039062-0.011719-0.039062-0.011719l-4.1172-2.4531-2.3945-1.4102 0.33984-2.1016 2.7422 0.35156s2.4023-2.8008 2.4023-3.1523v-2.4531l-2.7422-2.8008 2.4023-1.7539 1.3711-2.8008-2.7422 1.7539-1.3711-1.7539-3.4336-0.35156-2.0391 1.1523-0.54297 2.4766-0.66016 8.2148c-0.023438 0.29297-0.14062 0.57031-0.33203 0.79688 0 0-1.9648 2.2852-2.6328 3.0312-0.10156 0.42188-0.1875 1.332-0.17188 1.918zm91.426 219.84 1.2109-0.73828c0.11719-0.066406 0.23438-0.11719 0.35938-0.15625v-0.89453c-0.19141 0.09375-0.41016 0.14453-0.66016 0.14453-0.27344 0-0.68359 0-2.4141-1.0312l0.33984 1.3984 0.015625 0.99219zm-64.023-91.949c-0.40234 0.96484-0.76172 1.8125-1.5586 2.0312l0.22266 0.67187 0.67578 3.7188 1.8633 2.543c0.12891 0.17969 0.21875 0.37891 0.25391 0.59766l0.26953 1.625 3.0742 2.8242c0.20703 0.19141 0.33594 0.44141 0.40234 0.71875l0.36328-2.0312c0.11328-0.62891 0.63672-1.1016 1.2773-1.1523l4.8047-0.35156c0.17969-0.011719 0.37109 0.011719 0.54688 0.074219 0.69531 0.23438 1.5664 0.39062 1.8203 0.37109 0.10547-0.074218 0.46094-0.38672 0.78906-0.69531v-2.1992c0-0.36328 0.14453-0.71875 0.39844-0.98047 3.5-3.5664 4.3008-3.5664 4.7773-3.5664 0.3125 0 1.0547 0 5.1406 2.2773 0.44141 0.24609 0.71875 0.71094 0.71875 1.2227v0.23438l2.6328 0.48828 4.3281 0.58984 2.25-2.582c0.38672-0.44141 1.0039-0.59766 1.5586-0.38672l2.0625 0.78906 3.5117-2.3867c0.39844-0.27344 0.90625-0.32031 1.3477-0.125l1.7969 0.78516 3.0898-1.7461c0.39062-0.24219 0.89062-0.27344 1.3047-0.078124l2.7617 1.25 2.3867-0.18359-0.32422-1.0977-3.0234-0.83984c-0.60547-0.16797-1.0234-0.71875-1.0234-1.3477v-2.0898l-0.91797-1.6406-2.8945-0.88672c-0.58984-0.17969-0.99219-0.72266-0.99219-1.3398v-1.6562l-1.0859-1.5586-3.1289-0.29297c-0.4375-0.039063-0.82813-0.28516-1.0625-0.66016-0.20313-0.33203-0.25781-0.71875-0.16406-1.0859h-1.7305c-0.77344 0-1.3984-0.62891-1.3984-1.3984v-2.1016l0.58984-2.832-2.8906-4.0156-3.1406 0.63672v0.95703c0 0.40234-0.17187 0.78516-0.46875 1.0547 0 0-4.9961 4.4141-5.4219 4.832-0.28125 0.28516-0.63281 0.64453-5.7734 1.7695v0.089844c-0.011719 0.37891-0.17969 0.73828-0.46094 0.99609l-3.0898 2.8008c-0.21875 0.19531-0.49219 0.32422-0.78516 0.35156l-2.832 0.32031-3.8906 1.9805c-0.4375 0.21875-0.95703 0.20312-1.3672-0.050781l-0.89453-0.54688-0.60938 0.46484c-0.20312 0.15234-0.44141 0.24609-0.69531 0.28125l-2.4297 0.27344c-1.4492 2.2891-2.1953 3.293-2.6953 3.668-0.085938 0.16797-0.17578 0.39062-0.26953 0.61719z"/>
  <use x="70" y="644" xlink:href="#w"/>
  <use x="90.550781" y="644" xlink:href="#d"/>
  <use x="104.359375" y="644" xlink:href="#b"/>
  <use x="123.347656" y="644" xlink:href="#j"/>
  <use x="142.242188" y="644" xlink:href="#c"/>
  <use x="155.628906" y="644" xlink:href="#b"/>
  <use x="174.617188" y="644" xlink:href="#i"/>
  <use x="204.410156" y="644" xlink:href="#f"/>
  <use x="224.453125" y="644" xlink:href="#e"/>
  <use x="252.453125" y="644" xlink:href="#h"/>
  <use x="272.617188" y="644" xlink:href="#b"/>
  <use x="291.609375" y="644" xlink:href="#c"/>
  <use x="304.992188" y="644" xlink:href="#e"/>
  <use x="323.242188" y="644" xlink:href="#a"/>
  <use x="352.226562" y="644" xlink:href="#v"/>
  <use x="373.898438" y="644" xlink:href="#d"/>
  <use x="387.707031" y="644" xlink:href="#g"/>
  <use x="407.054688" y="644" xlink:href="#u"/>
  <use x="437.9375" y="644" xlink:href="#g"/>
  <use x="447.535156" y="644" xlink:href="#f"/>
  <use x="467.578125" y="644" xlink:href="#a"/>
  <use x="486.8125" y="644" xlink:href="#t"/>
  <use x="512.679687" y="644" xlink:href="#a"/>
  <use x="70" y="672" xlink:href="#s"/>
  <use x="82.183594" y="672" xlink:href="#d"/>
  <use x="95.992188" y="672" xlink:href="#a"/>
  <use x="115.226562" y="672" xlink:href="#r"/>
  <use x="154.152344" y="672" xlink:href="#c"/>
  <use x="167.535156" y="672" xlink:href="#q"/>
  <use x="187.46875" y="672" xlink:href="#b"/>
  <use x="216.207031" y="672" xlink:href="#p"/>
  <use x="239.640625" y="672" xlink:href="#a"/>
  <use x="258.878906" y="672" xlink:href="#o"/>
  <use x="278.8125" y="672" xlink:href="#n"/>
  <use x="308.492188" y="672" xlink:href="#m"/>
  <use x="329.015625" y="672" xlink:href="#d"/>
  <use x="342.820312" y="672" xlink:href="#a"/>
  <use x="362.058594" y="672" xlink:href="#l"/>
  <use x="371.65625" y="672" xlink:href="#b"/>
  <use x="390.648438" y="672" xlink:href="#k"/>
  <use x="407.242188" y="672" xlink:href="#c"/>
 </g>
</svg>
