<?xml version="1.0" encoding="UTF-8"?>
<svg width="700pt" height="700pt" version="1.1" viewBox="0 0 700 700" xmlns="http://www.w3.org/2000/svg" xmlns:xlink="http://www.w3.org/1999/xlink">
 <defs>
  <symbol id="w" overflow="visible">
   <path d="m18.766-1.125c-0.96875 0.5-1.9805 0.875-3.0312 1.125-1.043 0.25781-2.1367 0.39062-3.2812 0.39062-3.3984 0-6.0898-0.94531-8.0781-2.8438-1.9922-1.9062-2.9844-4.4844-2.9844-7.7344 0-3.2578 0.99219-5.8359 2.9844-7.7344 1.9883-1.9062 4.6797-2.8594 8.0781-2.8594 1.1445 0 2.2383 0.13281 3.2812 0.39062 1.0508 0.25 2.0625 0.625 3.0312 1.125v4.2188c-0.98047-0.65625-1.9453-1.1406-2.8906-1.4531-0.94922-0.3125-1.9492-0.46875-3-0.46875-1.875 0-3.3516 0.60547-4.4219 1.8125-1.0742 1.1992-1.6094 2.8555-1.6094 4.9688 0 2.1055 0.53516 3.7617 1.6094 4.9688 1.0703 1.1992 2.5469 1.7969 4.4219 1.7969 1.0508 0 2.0508-0.14844 3-0.45312 0.94531-0.3125 1.9102-0.80078 2.8906-1.4688z"/>
  </symbol>
  <symbol id="d" overflow="visible">
   <path d="m13.734-11.141c-0.4375-0.19531-0.87109-0.34375-1.2969-0.4375-0.41797-0.10156-0.83984-0.15625-1.2656-0.15625-1.2617 0-2.2305 0.40625-2.9062 1.2188-0.67969 0.80469-1.0156 1.9531-1.0156 3.4531v7.0625h-4.8906v-15.312h4.8906v2.5156c0.625-1 1.3438-1.7266 2.1562-2.1875 0.82031-0.46875 1.8008-0.70312 2.9375-0.70312 0.16406 0 0.34375 0.011719 0.53125 0.03125 0.19531 0.011719 0.47656 0.039062 0.84375 0.078125z"/>
  </symbol>
  <symbol id="b" overflow="visible">
   <path d="m17.641-7.7031v1.4062h-11.453c0.125 1.1484 0.53906 2.0078 1.25 2.5781 0.70703 0.57422 1.7031 0.85938 2.9844 0.85938 1.0312 0 2.082-0.14844 3.1562-0.45312 1.082-0.3125 2.1914-0.77344 3.3281-1.3906v3.7656c-1.1562 0.4375-2.3125 0.76562-3.4688 0.98438-1.1562 0.22656-2.3125 0.34375-3.4688 0.34375-2.7734 0-4.9297-0.70312-6.4688-2.1094-1.5312-1.4062-2.2969-3.3789-2.2969-5.9219 0-2.5 0.75391-4.4609 2.2656-5.8906 1.5078-1.4375 3.582-2.1562 6.2188-2.1562 2.4062 0 4.332 0.73047 5.7812 2.1875 1.4453 1.4492 2.1719 3.3828 2.1719 5.7969zm-5.0312-1.625c0-0.92578-0.27344-1.6719-0.8125-2.2344-0.54297-0.57031-1.25-0.85938-2.125-0.85938-0.94922 0-1.7188 0.26562-2.3125 0.79688s-0.96484 1.2969-1.1094 2.2969z"/>
  </symbol>
  <symbol id="j" overflow="visible">
   <path d="m9.2188-6.8906c-1.0234 0-1.793 0.17188-2.3125 0.51562-0.51172 0.34375-0.76562 0.85547-0.76562 1.5312 0 0.625 0.20703 1.1172 0.625 1.4688 0.41406 0.34375 0.98828 0.51562 1.7188 0.51562 0.92578 0 1.7031-0.32812 2.3281-0.98438 0.63281-0.66406 0.95312-1.4922 0.95312-2.4844v-0.5625zm7.4688-1.8438v8.7344h-4.9219v-2.2656c-0.65625 0.92969-1.3984 1.6055-2.2188 2.0312-0.82422 0.41406-1.8242 0.625-3 0.625-1.5859 0-2.8711-0.45703-3.8594-1.375-0.99219-0.92578-1.4844-2.1289-1.4844-3.6094 0-1.7891 0.61328-3.1016 1.8438-3.9375 1.2383-0.84375 3.1797-1.2656 5.8281-1.2656h2.8906v-0.39062c0-0.76953-0.30859-1.332-0.92188-1.6875-0.61719-0.36328-1.5703-0.54688-2.8594-0.54688-1.0547 0-2.0312 0.10547-2.9375 0.3125-0.89844 0.21094-1.7305 0.52344-2.5 0.9375v-3.7344c1.0391-0.25 2.0859-0.44141 3.1406-0.57812 1.0625-0.13281 2.125-0.20312 3.1875-0.20312 2.7578 0 4.75 0.54688 5.9688 1.6406 1.2266 1.0859 1.8438 2.8555 1.8438 5.3125z"/>
  </symbol>
  <symbol id="c" overflow="visible">
   <path d="m7.7031-19.656v4.3438h5.0469v3.5h-5.0469v6.5c0 0.71094 0.14062 1.1875 0.42188 1.4375s0.83594 0.375 1.6719 0.375h2.5156v3.5h-4.1875c-1.9375 0-3.3125-0.39844-4.125-1.2031-0.80469-0.8125-1.2031-2.1797-1.2031-4.1094v-6.5h-2.4219v-3.5h2.4219v-4.3438z"/>
  </symbol>
  <symbol id="i" overflow="visible">
   <path d="m12.766-13.078v-8.2031h4.9219v21.281h-4.9219v-2.2188c-0.66797 0.90625-1.4062 1.5703-2.2188 1.9844s-1.7578 0.625-2.8281 0.625c-1.8867 0-3.4336-0.75-4.6406-2.25-1.2109-1.5-1.8125-3.4258-1.8125-5.7812 0-2.3633 0.60156-4.2969 1.8125-5.7969 1.207-1.5 2.7539-2.25 4.6406-2.25 1.0625 0 2 0.21484 2.8125 0.64062 0.82031 0.42969 1.5664 1.0859 2.2344 1.9688zm-3.2188 9.9219c1.0391 0 1.8359-0.37891 2.3906-1.1406 0.55078-0.76953 0.82812-1.8828 0.82812-3.3438 0-1.457-0.27734-2.5664-0.82812-3.3281-0.55469-0.76953-1.3516-1.1562-2.3906-1.1562-1.043 0-1.8398 0.38672-2.3906 1.1562-0.55469 0.76172-0.82812 1.8711-0.82812 3.3281 0 1.4609 0.27344 2.5742 0.82812 3.3438 0.55078 0.76172 1.3477 1.1406 2.3906 1.1406z"/>
  </symbol>
  <symbol id="f" overflow="visible">
   <path d="m10.5-3.1562c1.0508 0 1.8516-0.37891 2.4062-1.1406 0.55078-0.76953 0.82812-1.8828 0.82812-3.3438 0-1.457-0.27734-2.5664-0.82812-3.3281-0.55469-0.76953-1.3555-1.1562-2.4062-1.1562-1.0547 0-1.8594 0.38672-2.4219 1.1562-0.55469 0.77344-0.82812 1.8828-0.82812 3.3281 0 1.4492 0.27344 2.5586 0.82812 3.3281 0.5625 0.77344 1.3672 1.1562 2.4219 1.1562zm-3.25-9.9219c0.67578-0.88281 1.4219-1.5391 2.2344-1.9688 0.82031-0.42578 1.7656-0.64062 2.8281-0.64062 1.8945 0 3.4453 0.75 4.6562 2.25 1.207 1.5 1.8125 3.4336 1.8125 5.7969 0 2.3555-0.60547 4.2812-1.8125 5.7812-1.2109 1.5-2.7617 2.25-4.6562 2.25-1.0625 0-2.0078-0.21094-2.8281-0.625-0.8125-0.42578-1.5586-1.0859-2.2344-1.9844v2.2188h-4.8906v-21.281h4.8906z"/>
  </symbol>
  <symbol id="e" overflow="visible">
   <path d="m0.34375-15.312h4.8906l4.125 10.391 3.5-10.391h4.8906l-6.4375 16.766c-0.64844 1.6953-1.4023 2.8828-2.2656 3.5625-0.86719 0.6875-2 1.0312-3.4062 1.0312h-2.8438v-3.2188h1.5312c0.83203 0 1.4375-0.13672 1.8125-0.40625 0.38281-0.26172 0.67969-0.73047 0.89062-1.4062l0.14062-0.42188z"/>
  </symbol>
  <symbol id="h" overflow="visible">
   <path d="m16.781-19.766v4.3125c-1.125-0.5-2.2266-0.875-3.2969-1.125-1.0625-0.25781-2.0703-0.39062-3.0156-0.39062-1.25 0-2.1797 0.17969-2.7812 0.53125-0.60547 0.34375-0.90625 0.88281-0.90625 1.6094 0 0.54297 0.20312 0.96875 0.60938 1.2812 0.40625 0.30469 1.1406 0.5625 2.2031 0.78125l2.25 0.45312c2.2695 0.44922 3.8789 1.1406 4.8281 2.0781 0.95703 0.92969 1.4375 2.2461 1.4375 3.9531 0 2.25-0.66797 3.9297-2 5.0312-1.3359 1.0938-3.3711 1.6406-6.1094 1.6406-1.3047 0-2.6055-0.125-3.9062-0.375-1.3047-0.23828-2.6055-0.59766-3.9062-1.0781v-4.4531c1.3008 0.69922 2.5625 1.2266 3.7812 1.5781 1.2188 0.34375 2.3906 0.51562 3.5156 0.51562 1.1562 0 2.0352-0.1875 2.6406-0.5625 0.61328-0.38281 0.92188-0.9375 0.92188-1.6562 0-0.63281-0.21094-1.125-0.625-1.4688-0.41797-0.34375-1.2461-0.65625-2.4844-0.9375l-2.0312-0.4375c-2.043-0.4375-3.5391-1.1328-4.4844-2.0938-0.9375-0.95703-1.4062-2.25-1.4062-3.875 0-2.0312 0.65625-3.5938 1.9688-4.6875s3.1953-1.6406 5.6562-1.6406c1.125 0 2.2734 0.085938 3.4531 0.25 1.1875 0.16797 2.4141 0.42188 3.6875 0.76562z"/>
  </symbol>
  <symbol id="a" overflow="visible">
   <path d="m9.6406-12.188c-1.0859 0-1.9141 0.39062-2.4844 1.1719-0.57422 0.78125-0.85938 1.9062-0.85938 3.375s0.28516 2.5938 0.85938 3.375c0.57031 0.77344 1.3984 1.1562 2.4844 1.1562 1.0625 0 1.875-0.38281 2.4375-1.1562 0.57031-0.78125 0.85938-1.9062 0.85938-3.375s-0.28906-2.5938-0.85938-3.375c-0.5625-0.78125-1.375-1.1719-2.4375-1.1719zm0-3.5c2.6328 0 4.6914 0.71484 6.1719 2.1406 1.4766 1.418 2.2188 3.3867 2.2188 5.9062 0 2.5117-0.74219 4.4805-2.2188 5.9062-1.4805 1.418-3.5391 2.125-6.1719 2.125-2.6484 0-4.7148-0.70703-6.2031-2.125-1.4922-1.4258-2.2344-3.3945-2.2344-5.9062 0-2.5195 0.74219-4.4883 2.2344-5.9062 1.4883-1.4258 3.5547-2.1406 6.2031-2.1406z"/>
  </symbol>
  <symbol id="v" overflow="visible">
   <path d="m14.953-3.7188h-8.2188l-1.3125 3.7188h-5.2812l7.5625-20.406h6.2656l7.5625 20.406h-5.2812zm-6.9062-3.7812h5.5781l-2.7812-8.125z"/>
  </symbol>
  <symbol id="g" overflow="visible">
   <path d="m2.3594-15.312h4.8906v15.312h-4.8906zm0-5.9688h4.8906v4h-4.8906z"/>
  </symbol>
  <symbol id="u" overflow="visible">
   <path d="m0.82812-20.406h5.0469l3.5312 14.828 3.5-14.828h5.0781l3.5 14.828 3.5156-14.828h5.0156l-4.8125 20.406h-6.0781l-3.7031-15.516-3.6562 15.516h-6.0781z"/>
  </symbol>
  <symbol id="t" overflow="visible">
   <path d="m0.98438-15.312h4.7656l2.5625 10.547 2.5781-10.547h4.0938l2.5781 10.438 2.5781-10.438h4.75l-4.0312 15.312h-5.3438l-2.5781-10.531-2.5781 10.531h-5.3438z"/>
  </symbol>
  <symbol id="s" overflow="visible">
   <path d="m12.422-21.281v3.2188h-2.7031c-0.6875 0-1.1719 0.125-1.4531 0.375-0.27344 0.25-0.40625 0.6875-0.40625 1.3125v1.0625h4.1875v3.5h-4.1875v11.812h-4.8906v-11.812h-2.4375v-3.5h2.4375v-1.0625c0-1.6641 0.46094-2.8984 1.3906-3.7031 0.92578-0.80078 2.3672-1.2031 4.3281-1.2031z"/>
  </symbol>
  <symbol id="r" overflow="visible">
   <path d="m16.547-12.766c0.61328-0.94531 1.3477-1.6719 2.2031-2.1719 0.85156-0.5 1.7891-0.75 2.8125-0.75 1.7578 0 3.0977 0.54688 4.0156 1.6406 0.92578 1.0859 1.3906 2.6562 1.3906 4.7188v9.3281h-4.9219v-7.9844-0.35938c0.007813-0.13281 0.015625-0.32031 0.015625-0.5625 0-1.082-0.16406-1.8633-0.48438-2.3438-0.3125-0.48828-0.82422-0.73438-1.5312-0.73438-0.92969 0-1.6484 0.38672-2.1562 1.1562-0.51172 0.76172-0.77344 1.8672-0.78125 3.3125v7.5156h-4.9219v-7.9844c0-1.6953-0.14844-2.7852-0.4375-3.2656-0.29297-0.48828-0.8125-0.73438-1.5625-0.73438-0.9375 0-1.6641 0.38672-2.1719 1.1562-0.51172 0.76172-0.76562 1.8594-0.76562 3.2969v7.5312h-4.9219v-15.312h4.9219v2.2344c0.60156-0.86328 1.2891-1.5156 2.0625-1.9531 0.78125-0.4375 1.6406-0.65625 2.5781-0.65625 1.0625 0 2 0.25781 2.8125 0.76562 0.8125 0.51172 1.4258 1.2305 1.8438 2.1562z"/>
  </symbol>
  <symbol id="q" overflow="visible">
   <path d="m17.75-9.3281v9.3281h-4.9219v-7.1094c0-1.3438-0.03125-2.2656-0.09375-2.7656s-0.16797-0.86719-0.3125-1.1094c-0.1875-0.3125-0.44922-0.55469-0.78125-0.73438-0.32422-0.17578-0.69531-0.26562-1.1094-0.26562-1.0234 0-1.8242 0.39844-2.4062 1.1875-0.58594 0.78125-0.875 1.8711-0.875 3.2656v7.5312h-4.8906v-21.281h4.8906v8.2031c0.73828-0.88281 1.5195-1.5391 2.3438-1.9688 0.83203-0.42578 1.75-0.64062 2.75-0.64062 1.7695 0 3.1133 0.54688 4.0312 1.6406 0.91406 1.0859 1.375 2.6562 1.375 4.7188z"/>
  </symbol>
  <symbol id="p" overflow="visible">
   <path d="m2.5781-20.406h5.875l7.4219 14v-14h4.9844v20.406h-5.875l-7.4219-14v14h-4.9844z"/>
  </symbol>
  <symbol id="o" overflow="visible">
   <path d="m2.1875-5.9688v-9.3438h4.9219v1.5312c0 0.83594-0.007813 1.875-0.015625 3.125-0.011719 1.25-0.015625 2.0859-0.015625 2.5 0 1.2422 0.03125 2.1328 0.09375 2.6719 0.070313 0.54297 0.17969 0.93359 0.32812 1.1719 0.20703 0.32422 0.47266 0.57422 0.79688 0.75 0.32031 0.16797 0.69141 0.25 1.1094 0.25 1.0195 0 1.8203-0.39062 2.4062-1.1719 0.58203-0.78125 0.875-1.8672 0.875-3.2656v-7.5625h4.8906v15.312h-4.8906v-2.2188c-0.74219 0.89844-1.5234 1.5586-2.3438 1.9844-0.82422 0.41406-1.7344 0.625-2.7344 0.625-1.7617 0-3.1055-0.53906-4.0312-1.625-0.92969-1.082-1.3906-2.6602-1.3906-4.7344z"/>
  </symbol>
  <symbol id="n" overflow="visible">
   <path d="m17.75-9.3281v9.3281h-4.9219v-7.1406c0-1.3203-0.03125-2.2344-0.09375-2.7344s-0.16797-0.86719-0.3125-1.1094c-0.1875-0.3125-0.44922-0.55469-0.78125-0.73438-0.32422-0.17578-0.69531-0.26562-1.1094-0.26562-1.0234 0-1.8242 0.39844-2.4062 1.1875-0.58594 0.78125-0.875 1.8711-0.875 3.2656v7.5312h-4.8906v-15.312h4.8906v2.2344c0.73828-0.88281 1.5195-1.5391 2.3438-1.9688 0.83203-0.42578 1.75-0.64062 2.75-0.64062 1.7695 0 3.1133 0.54688 4.0312 1.6406 0.91406 1.0859 1.375 2.6562 1.375 4.7188z"/>
  </symbol>
  <symbol id="m" overflow="visible">
   <path d="m2.5781-20.406h8.7344c2.5938 0 4.582 0.57812 5.9688 1.7344 1.3945 1.1484 2.0938 2.7891 2.0938 4.9219 0 2.1367-0.69922 3.7812-2.0938 4.9375-1.3867 1.1562-3.375 1.7344-5.9688 1.7344h-3.4844v7.0781h-5.25zm5.25 3.8125v5.7031h2.9219c1.0195 0 1.8047-0.25 2.3594-0.75 0.5625-0.5 0.84375-1.2031 0.84375-2.1094 0-0.91406-0.28125-1.6172-0.84375-2.1094-0.55469-0.48828-1.3398-0.73438-2.3594-0.73438z"/>
  </symbol>
  <symbol id="l" overflow="visible">
   <path d="m2.3594-15.312h4.8906v15.031c0 2.0508-0.49609 3.6172-1.4844 4.7031-0.98047 1.082-2.4062 1.625-4.2812 1.625h-2.4219v-3.2188h0.85938c0.92578 0 1.5625-0.21094 1.9062-0.625 0.35156-0.41797 0.53125-1.2461 0.53125-2.4844zm0-5.9688h4.8906v4h-4.8906z"/>
  </symbol>
  <symbol id="k" overflow="visible">
   <path d="m14.719-14.828v3.9844c-0.65625-0.45703-1.3242-0.79688-2-1.0156-0.66797-0.21875-1.3594-0.32812-2.0781-0.32812-1.3672 0-2.4336 0.40234-3.2031 1.2031-0.76172 0.79297-1.1406 1.9062-1.1406 3.3438 0 1.4297 0.37891 2.543 1.1406 3.3438 0.76953 0.79297 1.8359 1.1875 3.2031 1.1875 0.75781 0 1.4844-0.10938 2.1719-0.32812 0.6875-0.22656 1.3203-0.56641 1.9062-1.0156v4c-0.76172 0.28125-1.5391 0.48828-2.3281 0.625-0.78125 0.14453-1.5742 0.21875-2.375 0.21875-2.7617 0-4.9219-0.70703-6.4844-2.125-1.5547-1.4141-2.3281-3.3828-2.3281-5.9062 0-2.5312 0.77344-4.5039 2.3281-5.9219 1.5625-1.4141 3.7227-2.125 6.4844-2.125 0.80078 0 1.5938 0.074219 2.375 0.21875 0.78125 0.13672 1.5547 0.35156 2.3281 0.64062z"/>
  </symbol>
 </defs>
 <g>
  <path d="m204.91 115.71-2.2734 4.1836h-20.074l-8.332-3.4219 18.938-4.9453-1.8945-8.3672 2.2734-7.2227 9.0898-8.7461 12.5-5.707 7.1953 5.707 4.9219-2.6602-2.6562-9.5078 6.0586-7.2227 8.7148 4.1836-3.0312 1.5234 2.6562 3.8008 9.0898-11.789 5.6836-2.6602 23.488 6.8438-0.75781 6.082 8.8359 25.625-47.562 36.859 1.7695 6.1094 0.13281 8.1523h5.8672l-3.7812 17.809 0.085937 0.32031c0.62109 2.3984 1.2891 5.0391 1.5352 6.0664-0.66016 0.68359-6.8555 6.5703-11.727 11.211l1.6445-7.5664v-37.648l-5.3047-9.1289-4.5469-12.551-4.9297 3.0391-9.0898-4.1836 10.227-5.707zm192.06 277.62s4.1602-11.027 4.1602-12.176c0-1.1367-7.1914-27.758-7.1914-27.758l25.945-21.676 4.7422-21.676 9.8516-12.93 12.125-4.9492s-2.2695-10.27-1.1367-11.027c0.62891-0.42188 5.0469-3.0312 8.8867-5.293-0.24609-1.5781-4.625-15.035-4.625-15.035h-3.8203l-5.4141 12.375-18.312 2.1602-3.4219 3.0508-0.57812 6.7891-10.941 0.39062-1.8359 3.5859-10.609 6.6602-5.7305 0.76562-2.8789-5.4727 3.5664-6.875-3.7617-10.785-3.707-1.5586-5.875 4.8828-0.12891 12.477-7.6484 4.7227-3.168-7.7344 5.8594-16.141 11.066-3.4219-0.64844-0.3125h-9.25l-5.7188-4.3164-4.8906 1.9219-7.1445 0.54297-2.7383-3.5352 6.9336-5.1914-15.871-6.25-98.844-23.695-5.8203 3.7734-6.8047-2.6562-4.957-3.875 0.26172 1.3594-12.879 27.004s-9.4688 18.258-9.4688 19.398c0 1.1406 3.793 36.133 3.793 36.133l7.1328 13.418 18.199 2.168 15.398 11.742c4.6406 1.2422 11.781 3.1484 13.234 3.4883 0.96484-0.25781 8.3828-2.5547 8.3828-2.5547s7.0664 7.4688 7.8398 8.1797c0.74609 0.35156 1.707 8.2812 1.8203 8.6406 0.20312 0.19531 1.9023 1.5195 3.625 2.8008l3.0781-3.2383s6.8164-0.5 7.125-0.39062c0.75 0.25391 0.87891 0.29688 7.6562 15.215l0.11328 0.35938 1.0938 7.0547 5.9023 1.9023-0.21875-7.1836s17.047-8.3594 18.938-8.3594c1.8945 0 21.594 4.5625 21.594 4.5625l6.0586-7.2305 20.844 4.9453 5.2969-1.8945zm-4.9258-295.12 17.047 2.8438 3.9258-4.4922 9.7109-19.27 3.793-6.8438s-12.879-1.8984-13.5-1.8984-24 9.1289-24 9.1289v8.3672l9.4688 4.1836zm-50.766 4.9453v-4.9453s-5.3047-5.707-6.8203-6.0859c-1.5195-0.37891-13.262 7.6055-13.262 7.6055l-2.6562 10.266h5.6914zm110.24 46.398-16.672-10.652-4.9219-10.27-16.918-11.789-18.699-3.0391s-7.957 8.3672-7.957 9.5078 2.2695 9.1289 3.9766 9.1289h19.512l14.387 15.215-4.3555 12.93 14.207 13.691 15.16 3.8008v-11.406l-12.129-14.453 14.398 7.6055zm-101.14-48.496c1.1367-0.56641 9.8516 0.015625 9.8516 0.015625l5.7695-2.8633-3.5-6.0977-5.2969 4.4531-1.8945-6.3398v-5.4258l-14.016 2c-0.007813 0.003907 7.9492 14.824 9.0859 14.258zm37.879 8.9414c2.2734 0.76172 20.836 3.8008 20.836 3.8008l-1.8945-7.9844h-14.016l-4.543-8.7461s-7.9648-1.1367-7.1953 0c0.75391 1.1406 4.5391 12.176 6.8125 12.93zm-46.973-4.1836-14.016 7.6055 2.6484 14.836s21.211 5.707 22.348 6.082c1.1367 0.37891 7.957-2.2773 7.957-2.2773s-3.4102-19.777-3.4102-22.059l-6.8125 2.2812zm37.125 4.1836h-11.742s-1.5195 12.93 0 12.168c1.5156-0.76172 9.0938-0.76172 9.0938-0.76172l9.4688-7.6055zm67.422 312.23s-10.98 7.2305-12.117 6.8477l15.148 5.3242 18.945-5.3086-9.4688-6.8672zm-53.406 65.418-9-5.75c-0.53125 2.9609-1.0938 6.2891-1.5195 9.1328l2.1914 1.5625 10.613 3.8086h5.3047l-2.2734-5.3242 8.332-3.8086 9.4609 16.73 0.37891-12.168-7.1953-8.7461zm-6.0586-84.43 28.035 19.02h16.672l-29.934-17.113zm124.63-311.14-3.0312-7.2695-37.891-24.625-25.375-4.1797-9.8516 12.551-8.332 9.1289v7.1289l-7.582 7.3125c1.1367-0.75 8.7188 8.7812 9.8555 8.9609 1.1367 0.17969 14.391 0 14.391 0l24.246 23s6.8164 22.438 7.9531 21.867c1.1367-0.57031 27.277 26.051 28.41 26.051h16.289l-6.8281-31.941 6.8281-8.0117v-9.8281l5.6914-8.3984v-11.027zm-13.641 147.23 0.375-11.406-3.4062 2.2773 1.5195-7.2227-10.988-8.7461-19.32-11.027-12.125-17.496-6.4414 10.27-7.5781-2.2773-2.2695-10.645-13.641-7.6055-14.016-0.37891 3.543 14.066-3.543 6.4609 8.7148 12.551-12.117 8.7461 2.6484 14.453-4.5469 8.3672-11.355-12.93 3.0312-11.406-12.887-2.2773-15.148-12.551-7.9648 1.1406-3.0312-14.836 14.777-17.113 13.637-6.0859 6.0586-11.031 9.4648 0.76172 3.0312-14.453-9.4648-4.1836-7.1953 12.551-0.375-8.7461-8.332-4.9453 2.6562-6.0859-5.3086-6.0859-6.8203 8.3672 3.0312 9.5078-6.0586 3.8008v-13.312s-7.957 9.5078-9.0938 9.8906c-1.1367 0.37891-11.742-3.8008-11.742-3.8008l-21.211-5.6992s-17.801-23.199-18.562-23.957c-0.75781-0.76172-18.562-0.76172-18.562-0.76172l-0.42578-1.2383-45.309 35.113 1.3477 4.8203 0.10156 5.5898h6.5703l-4.3555 20.539c1.6406 6.3398 1.6406 6.668 1.6406 6.8711 0 0.72656-15.707 15.77-15.707 15.77l-2.5703 11.793-4.1797 4.1719 1.9531 10.047 7.2617 5.6914 4.9766 1.8984 5.6328-3.6562 100.21 24.035 17.754 6.9766 8.1523-4.8398 13.66 7.4141v7.6484l3.1875 1.5273 13.164 2.1914 4.2656 6.6992-1.1641 4.0977-5.707-3.7344-4.6484 10.074-3.1914 6.1641 0.60938 1.1719 10.703-8.5898 0.003906-3.6406 16.082-3.6172 4.2227-3.7695 17.59-2.082 5.5117-12.582h7.6289s5.1055 15.277 5.2656 16.297c1.8945-1.1133 3.2578-1.9102 3.2578-1.9102l5.6836 7.2227 19.32-11.789-15.914-3.8008-7.1953-9.5078 6.4414-6.8438-9.4688-1.5234-13.254 7.6055 15.91-14.453 16.289 1.9023 13.254-10.266 1.8945 4.1836-3.7852 18.637s26.141 0.76172 26.141-0.37891c0-1.1367-6.0586-15.59-6.0586-15.59zm-143.59 214.56c-0.69531-0.011719-1.5898-0.015626-1.8828 0-0.65625 0.25391-0.82422 0.28125-4.4023-3.6562-0.66016 0.53906-1.5898 1.25-2.9922 2.2969l-3.5859 5.918 6.4336 1.9805 8.3164-2.4766zm-4.668-6.0469c1.1797 1.3008 2.4531 2.6562 3.0469 3.2383 0.50391 0.003906 1.2773 0 2.5586 0.027344l0.86719 0.023437 2.8008 6.0312 0.41406-0.125 1.3008-1.3711v-2.6094l11.543-5.9922s2.8672-0.29688 5.9805-0.63281l-4.5117-2.8789s-14.488 1.0234-21.738 1.2656l-1.8867 1.4609c-0.11328 0.44141-0.26953 1.082-0.375 1.5625zm-14.898-10.473h5.918l-0.19141-0.85156-4.0391-4.418 3.4961-4.75 0.78906 0.066406c3.7109 0.35156 7.8906 0.67578 9.1797 0.63281 0.92969-0.81641 5.2539-4.7031 10.922-8.7852l1.8477-8.4062-18.184 0.76172-5.3008 10.641-18.562 6.8477-15.535-15.98-0.75781-21.297 5.3047-10.641-0.074219-2.3984-8.4961-2.7344-1.3281-8.5742c-2.0508-4.5195-5.2539-11.457-6.293-13.508-0.79688 0.078125-2.7109 0.23438-4.5547 0.39062l-4.0469 4.2578s-6.4219-5.1523-6.5586-5.4805c-0.19531-0.44922-1.0117-6.9766-1.1406-7.6562-0.78516-0.69922-2.4883-2.457-6.7656-7-7.0273 2.1953-7.2852 2.1953-7.5312 2.1953-0.23047 0-0.49219 0-14.234-3.6914l-0.48828-0.23438-14.973-11.414-15.551-1.8633 3.0117 20.074 9.0898 29.281 10.988 15.973-3.0312-11.406-10.227-35.75 0.37891-10.645 5.6836 9.5078 5.6836 18.262 21.594 39.168v13.312l10.227 12.551 33.719 18.637 10.988-1.9023 13.234 9.1094 2.1523-8.0547zm42.188 36.508c-1.0547-0.27344-7.3906-1.9727-8.3906-2.2305-0.26953 0.92578-1.332 3.625-2.0547 5.4805l1.0977 3.3203 12.215 8.7188c0.49219-3.8633 0.95312-6.8203 1.3555-9.043l-4.8555-3.1055zm-19.953-37.168 2.9102-13.25c-4.082 3.1484-7.3359 6.0312-8.0078 6.5508l0.085938 11.199c2.4297-2.1602 5.0117-4.5 5.0117-4.5zm-10.148 10.871c0.09375-0.42188 0.26172-1.1523 0.58984-2.4453l0.11719-0.46875 1.5508-1.2031-0.10547-12.609c-1.5508-0.023437-3.9219-0.20703-7.7383-0.56641l-1.1875 1.625 2.9844 3.2773 1.1094 4.9961h-8.1367l-2.6133 2.9844-2.3594 9.2305 2.8281 3.7188 4.8477 1.4961 4.4023-7.1445c1.4297-1.0781 3.0898-2.3594 3.7109-2.8906zm25.898 2.2461-9.2852 4.9141v2.0391l-2.5977 2.7344-8.125 2.4062 0.84375 0.26172 11.184 10.871c0.91406-2.3281 2.0156-4.4961 2.8789-4.4961 0.24609 0 8.6016 2.2305 9.8633 2.5586l4.4844-22.25-0.078125-0.03125c-3.5117 0.41016-8.0312 0.875-9.168 0.99219z"/>
  <use x="70" y="644" xlink:href="#w"/>
  <use x="90.550781" y="644" xlink:href="#d"/>
  <use x="104.359375" y="644" xlink:href="#b"/>
  <use x="123.347656" y="644" xlink:href="#j"/>
  <use x="142.242188" y="644" xlink:href="#c"/>
  <use x="155.628906" y="644" xlink:href="#b"/>
  <use x="174.617188" y="644" xlink:href="#i"/>
  <use x="204.410156" y="644" xlink:href="#f"/>
  <use x="224.453125" y="644" xlink:href="#e"/>
  <use x="252.453125" y="644" xlink:href="#h"/>
  <use x="272.617188" y="644" xlink:href="#b"/>
  <use x="291.609375" y="644" xlink:href="#c"/>
  <use x="304.992188" y="644" xlink:href="#e"/>
  <use x="323.242188" y="644" xlink:href="#a"/>
  <use x="352.226562" y="644" xlink:href="#v"/>
  <use x="373.898438" y="644" xlink:href="#d"/>
  <use x="387.707031" y="644" xlink:href="#g"/>
  <use x="407.054688" y="644" xlink:href="#u"/>
  <use x="437.9375" y="644" xlink:href="#g"/>
  <use x="447.535156" y="644" xlink:href="#f"/>
  <use x="467.578125" y="644" xlink:href="#a"/>
  <use x="486.8125" y="644" xlink:href="#t"/>
  <use x="512.679687" y="644" xlink:href="#a"/>
  <use x="70" y="672" xlink:href="#s"/>
  <use x="82.183594" y="672" xlink:href="#d"/>
  <use x="95.992188" y="672" xlink:href="#a"/>
  <use x="115.226562" y="672" xlink:href="#r"/>
  <use x="154.152344" y="672" xlink:href="#c"/>
  <use x="167.535156" y="672" xlink:href="#q"/>
  <use x="187.46875" y="672" xlink:href="#b"/>
  <use x="216.207031" y="672" xlink:href="#p"/>
  <use x="239.640625" y="672" xlink:href="#a"/>
  <use x="258.878906" y="672" xlink:href="#o"/>
  <use x="278.8125" y="672" xlink:href="#n"/>
  <use x="308.492188" y="672" xlink:href="#m"/>
  <use x="329.015625" y="672" xlink:href="#d"/>
  <use x="342.820312" y="672" xlink:href="#a"/>
  <use x="362.058594" y="672" xlink:href="#l"/>
  <use x="371.65625" y="672" xlink:href="#b"/>
  <use x="390.648438" y="672" xlink:href="#k"/>
  <use x="407.242188" y="672" xlink:href="#c"/>
 </g>
</svg>
